<?xml version="1.0" standalone="no"?>
<!DOCTYPE svg PUBLIC "-//W3C//DTD SVG 20010904//EN"
 "http://www.w3.org/TR/2001/REC-SVG-20010904/DTD/svg10.dtd">
<svg version="1.0" xmlns="http://www.w3.org/2000/svg"
 width="1122.000000pt" height="291.000000pt" viewBox="0 0 1122.000000 291.000000"
 preserveAspectRatio="xMidYMid meet">
<metadata>
Created by potrace 1.15, written by Peter Selinger 2001-2017
</metadata>
<g transform="translate(0.000000,291.000000) scale(0.100000,-0.100000)"
fill="#000000" stroke="none">
<path d="M1470 2299 c-217 -21 -400 -89 -483 -177 -51 -56 -65 -93 -74 -204
l-6 -78 -173 0 -172 0 1 -140 1 -140 173 0 173 0 0 -435 0 -435 430 0 430 0 0
435 0 435 240 0 240 0 0 -303 0 -303 26 -52 c70 -142 265 -217 589 -229 349
-12 615 46 744 162 21 19 41 35 45 35 3 0 6 -40 6 -90 l0 -90 420 0 420 0 0
575 0 575 -450 0 -449 0 -3 -371 -3 -371 -37 -32 c-60 -52 -170 -76 -284 -61
-44 5 -64 13 -86 35 l-28 28 0 386 0 386 -700 0 -700 0 0 35 c0 24 9 44 28 65
43 49 147 63 390 55 l192 -7 0 150 0 150 -27 6 c-49 11 -775 15 -873 5z"/>
<path fill="#ff0000" d="M4630 1465 l0 -775 510 0 510 0 0 775 0 775 -510 0 -510 0 0 -775z"/>
<path d="M8310 1870 l0 -370 -58 58 c-134 132 -363 222 -697 274 -122 19 -181
22 -460 22 -282 0 -337 -2 -461 -22 -589 -92 -921 -319 -891 -609 27 -257 369
-454 922 -530 132 -18 614 -26 760 -12 379 35 676 137 831 286 l54 51 0 -164
0 -164 425 0 425 0 0 158 0 157 83 47 c45 27 100 59 123 72 l40 25 215 -229
214 -229 475 0 475 -1 -25 24 c-169 161 -746 722 -748 727 -2 4 152 94 341
200 l344 194 -400 3 -400 2 -301 -172 c-165 -94 -332 -191 -369 -215 -37 -23
-69 -43 -70 -43 -1 0 -1 187 1 415 l3 415 -426 0 -425 0 0 -370z m-1029 -345
c59 -20 114 -67 140 -117 l20 -40 167 6 c365 14 412 16 555 22 l147 6 0 -137
0 -137 -137 6 c-136 6 -223 10 -539 22 l-161 6 -13 -31 c-19 -48 -82 -98 -147
-118 -80 -24 -266 -24 -346 0 -111 34 -163 118 -161 262 2 200 105 281 339
270 50 -2 111 -11 136 -20z"/>
</g>
</svg>
