<svg id="svg" xmlns="http://www.w3.org/2000/svg" xmlns:xlink="http://www.w3.org/1999/xlink" width="400" height="109.42079553384508" viewBox="0, 0, 400,109.42079553384508"><g id="svgg"><path id="path0" d="M17.944 23.852 C 15.174 24.718,13.013 26.566,12.168 28.791 C 11.749 29.895,11.714 32.292,11.785 54.710 L 11.863 79.414 12.507 80.835 C 13.312 82.614,15.342 84.634,17.167 85.472 L 18.562 86.113 39.428 86.191 L 60.293 86.270 60.293 81.237 L 60.293 76.204 44.020 76.204 C 31.735 76.204,27.664 76.122,27.411 75.869 C 27.165 75.623,27.076 73.313,27.076 67.216 L 27.076 58.897 41.870 58.897 L 56.664 58.897 56.664 54.013 L 56.664 49.128 41.866 49.128 L 27.067 49.128 27.141 41.382 L 27.216 33.636 43.057 33.564 L 58.897 33.492 58.897 28.469 L 58.897 23.447 39.009 23.466 C 23.383 23.481,18.869 23.563,17.944 23.852 M178.646 30.426 L 178.646 37.404 186.322 37.404 L 193.999 37.404 193.999 30.426 L 193.999 23.447 186.322 23.447 L 178.646 23.447 178.646 30.426 M202.373 54.850 L 202.373 86.253 209.909 86.253 L 217.446 86.253 217.446 54.850 L 217.446 23.447 209.909 23.447 L 202.373 23.447 202.373 54.850 M223.866 54.850 L 223.866 86.253 231.122 86.253 L 238.377 86.253 238.449 67.347 L 238.521 48.441 249.820 67.347 L 261.120 86.253 268.732 86.253 L 276.343 86.253 276.343 54.850 L 276.343 23.447 269.225 23.447 L 262.107 23.447 262.107 42.209 C 262.107 58.155,262.050 60.910,261.723 60.562 C 261.512 60.337,256.410 51.895,250.386 41.800 L 239.433 23.447 231.649 23.447 L 223.866 23.447 223.866 54.850 M371.807 30.426 L 371.807 37.404 379.344 37.404 L 386.881 37.404 386.881 30.426 L 386.881 23.447 379.344 23.447 L 371.807 23.447 371.807 30.426 M85.415 39.266 C 83.891 39.508,81.285 40.596,79.763 41.626 L 78.158 42.712 78.158 41.314 L 78.158 39.916 70.900 39.916 L 63.643 39.916 63.643 63.084 L 63.643 86.253 70.891 86.253 L 78.140 86.253 78.218 70.802 L 78.297 55.351 79.274 53.438 C 81.265 49.541,85.399 47.923,87.201 50.337 C 87.781 51.113,87.789 51.333,87.864 68.687 L 87.940 86.253 95.331 86.253 L 102.722 86.253 102.724 70.272 L 102.727 54.292 103.570 52.822 C 105.594 49.293,109.662 48.073,111.300 50.504 L 111.933 51.443 111.933 68.853 L 111.933 86.262 119.400 86.187 L 126.867 86.113 126.867 68.807 C 126.867 49.921,126.874 50.022,125.230 46.618 C 121.252 38.383,108.441 36.489,101.180 43.062 L 99.819 44.294 98.409 42.862 C 95.287 39.692,90.707 38.424,85.415 39.266 M149.058 39.245 C 140.700 40.222,134.526 43.749,132.047 48.963 C 131.070 51.017,129.798 54.719,129.798 55.508 C 129.798 55.740,131.975 55.827,137.753 55.827 L 145.708 55.827 145.708 55.180 C 145.708 52.482,147.648 49.758,149.988 49.169 C 154.264 48.092,157.153 50.124,157.153 54.210 L 157.153 56.033 155.548 56.341 C 154.665 56.511,152.749 56.784,151.291 56.948 C 139.818 58.243,137.460 58.990,133.930 62.447 C 129.490 66.796,128.728 75.094,132.265 80.566 C 136.492 87.106,147.695 89.002,156.804 84.719 C 158.366 83.985,158.828 83.863,158.828 84.187 C 158.828 84.417,159.019 84.976,159.254 85.429 L 159.679 86.253 167.458 86.253 L 175.237 86.253 174.453 84.229 C 172.805 79.973,172.289 74.013,172.235 58.618 C 172.206 50.634,171.490 48.330,167.930 44.772 C 163.952 40.796,155.917 38.443,149.058 39.245 M297.832 39.365 C 290.823 40.186,284.334 43.814,281.983 48.226 C 281.094 49.894,279.414 54.575,279.414 55.384 C 279.414 56.166,295.141 55.913,295.269 55.129 C 296.593 47.008,306.769 46.350,306.769 54.386 L 306.769 56.033 305.164 56.341 C 304.281 56.511,302.366 56.784,300.907 56.948 C 289.435 58.243,287.076 58.990,283.546 62.447 C 278.337 67.550,278.287 77.347,283.446 82.505 C 288.367 87.427,297.623 88.430,305.877 84.937 C 307.152 84.398,308.223 84.002,308.258 84.058 C 308.292 84.114,308.535 84.630,308.797 85.206 L 309.272 86.253 317.073 86.253 L 324.874 86.253 324.188 84.566 C 322.432 80.243,321.888 74.372,321.851 59.316 C 321.844 56.399,321.710 53.196,321.553 52.198 C 320.187 43.489,309.941 37.947,297.832 39.365 M322.403 39.982 C 322.404 40.176,325.961 50.635,330.308 63.224 L 338.211 86.113 345.449 86.184 L 352.687 86.255 360.995 63.155 C 365.564 50.451,369.301 39.962,369.299 39.846 C 369.297 39.731,365.657 39.637,361.211 39.637 L 353.127 39.637 352.692 41.103 C 352.452 41.909,350.862 47.404,349.158 53.315 C 347.453 59.225,345.980 64.210,345.883 64.391 C 345.787 64.572,344.059 59.108,342.045 52.248 L 338.381 39.777 330.391 39.703 C 324.093 39.644,322.401 39.703,322.403 39.982 M178.646 63.084 L 178.646 86.253 186.322 86.253 L 193.999 86.253 193.999 63.084 L 193.999 39.916 186.322 39.916 L 178.646 39.916 178.646 63.084 M371.807 63.084 L 371.807 86.253 379.344 86.253 L 386.881 86.253 386.881 63.084 L 386.881 39.916 379.344 39.916 L 371.807 39.916 371.807 63.084 M157.432 70.182 L 157.432 74.488 155.129 75.387 C 149.320 77.654,145.399 76.146,145.809 71.802 C 146.076 68.982,147.637 67.573,151.156 66.981 C 152.228 66.801,153.922 66.492,154.920 66.294 C 155.918 66.096,156.891 65.921,157.083 65.905 C 157.348 65.883,157.432 66.908,157.432 70.182 M307.048 70.182 L 307.048 74.488 304.745 75.387 C 299.185 77.557,295.324 76.242,295.324 72.179 C 295.324 69.396,297.237 67.570,300.768 66.980 C 301.842 66.800,303.538 66.492,304.536 66.294 C 305.534 66.096,306.507 65.921,306.699 65.905 C 306.965 65.883,307.048 66.908,307.048 70.182 " stroke="none" fill="#000000" fill-rule="evenodd"></path></g></svg>