<svg id="svg" version="1.1" xmlns="http://www.w3.org/2000/svg" xmlns:xlink="http://www.w3.org/1999/xlink" width="400" height="112.09677419354838" viewBox="0, 0, 400,112.09677419354838"><g id="svgg"><path id="path0" d="M186.375 30.748 C 186.216 30.930,186.167 32.592,186.167 37.826 L 186.167 44.667 193.835 44.667 L 201.504 44.667 201.460 37.625 L 201.417 30.583 194.000 30.547 C 187.753 30.516,186.550 30.548,186.375 30.748 M229.778 30.611 C 229.717 30.672,229.667 44.435,229.667 61.194 L 229.667 91.667 236.917 91.667 C 240.904 91.667,244.167 91.610,244.167 91.542 C 244.167 91.473,240.998 91.417,237.125 91.417 L 230.083 91.417 230.041 61.125 L 229.999 30.833 237.583 30.833 C 242.528 30.833,245.167 30.775,245.167 30.667 C 245.167 30.479,229.965 30.424,229.778 30.611 M266.500 30.663 C 266.500 30.771,269.016 30.845,273.625 30.873 L 280.750 30.917 280.796 60.833 C 280.821 77.287,280.800 90.919,280.751 91.125 L 280.660 91.500 273.318 91.500 C 265.896 91.500,265.500 91.470,265.500 90.917 C 265.500 90.858,265.378 90.687,265.228 90.538 C 264.976 90.286,264.965 90.294,265.078 90.651 C 265.418 91.722,264.965 91.667,273.371 91.667 L 281.001 91.667 280.959 61.125 L 280.917 30.583 273.708 30.540 C 268.985 30.511,266.500 30.554,266.500 30.663 M372.278 30.611 C 372.217 30.672,372.167 33.860,372.167 37.694 L 372.167 44.667 379.667 44.667 L 387.167 44.667 387.167 37.583 L 387.167 30.500 379.778 30.500 C 375.714 30.500,372.339 30.550,372.278 30.611 M31.875 30.954 C 31.577 30.991,31.333 31.082,31.333 31.156 C 31.333 31.230,31.033 31.339,30.667 31.397 C 30.300 31.456,30.000 31.578,30.000 31.669 C 30.000 31.759,29.887 31.833,29.750 31.833 C 29.613 31.833,29.500 31.908,29.500 32.000 C 29.500 32.092,29.348 32.167,29.161 32.167 C 28.975 32.167,28.780 32.279,28.727 32.417 C 28.674 32.554,28.545 32.667,28.441 32.667 C 28.245 32.668,27.000 33.742,27.000 33.910 C 27.000 33.961,26.775 34.313,26.500 34.693 C 26.225 35.073,26.000 35.560,26.000 35.775 C 26.000 35.990,25.925 36.167,25.833 36.167 C 25.742 36.167,25.667 36.350,25.667 36.573 C 25.667 36.797,25.592 37.027,25.500 37.083 C 25.269 37.226,25.269 83.774,25.500 83.917 C 25.592 83.973,25.667 84.315,25.667 84.677 C 25.667 85.038,25.735 85.333,25.819 85.333 C 25.902 85.333,26.021 85.633,26.083 86.000 C 26.145 86.367,26.246 86.668,26.306 86.669 C 26.367 86.670,26.560 86.970,26.735 87.335 C 26.910 87.701,27.117 88.000,27.193 88.000 C 27.270 88.000,27.333 88.096,27.333 88.212 C 27.333 88.458,28.746 89.833,28.998 89.833 C 29.091 89.833,29.167 89.907,29.167 89.997 C 29.167 90.087,29.354 90.207,29.583 90.265 C 29.812 90.322,30.000 90.430,30.000 90.505 C 30.000 90.579,30.225 90.690,30.500 90.750 C 30.775 90.810,31.000 90.929,31.000 91.013 C 31.000 91.098,31.181 91.167,31.403 91.167 C 31.624 91.167,31.837 91.260,31.875 91.375 C 31.930 91.540,36.199 91.593,52.306 91.631 L 72.667 91.679 72.667 86.590 L 72.667 81.500 57.075 81.500 L 41.484 81.500 41.075 81.059 L 40.667 80.618 40.667 72.976 L 40.667 65.333 54.917 65.333 L 69.167 65.333 69.167 60.417 L 69.167 55.500 54.917 55.500 L 40.667 55.500 40.667 48.365 L 40.667 41.231 41.306 40.949 C 41.891 40.691,43.208 40.667,56.806 40.667 L 71.667 40.667 71.667 35.750 L 71.667 30.833 52.042 30.860 C 41.248 30.875,32.173 30.917,31.875 30.954 M209.000 61.250 L 209.000 91.667 216.667 91.667 L 224.333 91.667 224.333 61.250 L 224.333 30.833 216.667 30.833 L 209.000 30.833 209.000 61.250 M245.500 31.569 C 245.500 31.745,246.002 32.220,246.092 32.130 C 246.134 32.088,246.018 31.917,245.834 31.751 C 245.650 31.585,245.500 31.503,245.500 31.569 M246.333 32.929 C 246.333 32.981,246.446 33.136,246.583 33.274 C 246.855 33.545,246.889 33.505,246.732 33.097 C 246.637 32.849,246.333 32.721,246.333 32.929 M247.167 34.293 C 247.167 34.384,247.279 34.553,247.417 34.667 C 247.556 34.782,247.667 34.800,247.667 34.707 C 247.667 34.616,247.554 34.447,247.417 34.333 C 247.277 34.218,247.167 34.200,247.167 34.293 M248.174 36.014 C 248.277 36.205,248.394 36.329,248.434 36.288 C 248.551 36.171,248.314 35.667,248.143 35.667 C 248.058 35.667,248.072 35.823,248.174 36.014 M248.957 37.300 C 249.068 37.593,249.416 38.000,249.556 38.000 C 249.600 38.000,249.549 37.814,249.443 37.586 C 249.220 37.109,248.789 36.854,248.957 37.300 M249.705 38.667 C 249.916 39.003,250.167 39.112,250.167 38.867 C 250.167 38.693,249.806 38.333,249.632 38.333 C 249.558 38.333,249.591 38.483,249.705 38.667 M250.333 39.762 C 250.333 39.814,250.437 39.961,250.563 40.087 C 250.848 40.372,251.067 40.198,250.811 39.890 C 250.624 39.664,250.333 39.586,250.333 39.762 M251.167 41.095 C 251.167 41.148,251.279 41.303,251.417 41.440 C 251.688 41.712,251.722 41.671,251.566 41.264 C 251.470 41.016,251.167 40.888,251.167 41.095 M252.000 42.500 C 252.000 42.592,252.067 42.667,252.149 42.667 C 252.230 42.667,252.344 42.854,252.402 43.083 C 252.502 43.484,252.833 43.676,252.833 43.333 C 252.833 43.242,252.766 43.167,252.685 43.167 C 252.603 43.167,252.489 42.979,252.432 42.750 C 252.331 42.349,252.000 42.157,252.000 42.500 M252.833 43.833 C 252.833 43.925,252.900 44.000,252.982 44.000 C 253.064 44.000,253.178 44.188,253.235 44.417 C 253.336 44.818,253.667 45.009,253.667 44.667 C 253.667 44.575,253.600 44.500,253.518 44.500 C 253.436 44.500,253.322 44.313,253.265 44.083 C 253.164 43.682,252.833 43.491,252.833 43.833 M253.750 45.333 C 253.908 45.830,254.309 46.249,254.466 46.080 C 254.531 46.011,254.490 45.921,254.375 45.880 C 254.260 45.839,254.167 45.731,254.167 45.641 C 254.167 45.550,254.044 45.354,253.895 45.204 C 253.643 44.953,253.632 44.962,253.750 45.333 M96.167 45.946 C 95.846 45.989,95.512 46.093,95.425 46.179 C 95.338 46.264,95.094 46.333,94.883 46.333 C 94.672 46.333,94.500 46.399,94.500 46.479 C 94.500 46.559,94.200 46.672,93.833 46.731 C 93.467 46.789,93.167 46.911,93.167 47.002 C 93.167 47.093,93.047 47.167,92.901 47.167 C 92.607 47.167,91.615 47.678,91.528 47.875 C 91.497 47.944,91.388 48.000,91.286 48.000 C 91.183 48.000,90.852 48.240,90.550 48.533 L 90.000 49.065 90.000 47.866 L 90.000 46.667 82.667 46.667 L 75.333 46.667 75.333 69.167 L 75.333 91.667 82.660 91.667 L 89.987 91.667 90.035 76.744 C 90.070 66.075,90.136 61.787,90.268 61.702 C 90.369 61.637,90.504 61.302,90.567 60.958 C 90.630 60.615,90.736 60.333,90.802 60.333 C 90.867 60.333,91.051 60.033,91.210 59.667 C 91.369 59.300,91.574 59.000,91.666 59.000 C 91.758 59.000,91.833 58.894,91.833 58.764 C 91.833 58.492,92.911 57.333,93.164 57.333 C 93.257 57.333,93.333 57.260,93.333 57.170 C 93.333 57.080,93.521 56.959,93.750 56.902 C 93.979 56.844,94.167 56.737,94.167 56.663 C 94.167 56.590,94.467 56.479,94.833 56.417 C 95.200 56.355,95.500 56.236,95.500 56.152 C 95.500 55.322,98.194 56.469,98.427 57.398 C 98.487 57.639,98.604 57.878,98.685 57.928 C 98.770 57.981,98.833 65.205,98.833 74.843 L 98.833 91.667 106.167 91.667 L 113.500 91.667 113.500 76.445 L 113.500 61.223 113.916 60.403 C 114.145 59.952,114.332 59.533,114.333 59.472 C 114.335 59.104,116.437 57.022,116.933 56.898 C 117.153 56.842,117.333 56.734,117.333 56.656 C 117.333 56.579,117.597 56.466,117.919 56.405 C 118.240 56.345,118.545 56.229,118.595 56.148 C 118.900 55.655,120.479 56.164,121.218 56.994 C 122.081 57.962,122.070 57.743,122.122 75.292 L 122.170 91.667 129.585 91.667 L 137.000 91.667 137.000 74.917 C 137.000 65.704,136.936 58.167,136.858 58.167 C 136.780 58.167,136.667 57.585,136.607 56.875 C 136.547 56.165,136.423 55.558,136.332 55.528 C 136.241 55.497,136.167 55.291,136.167 55.069 C 136.167 54.848,136.101 54.667,136.021 54.667 C 135.941 54.667,135.828 54.367,135.769 54.000 C 135.711 53.633,135.589 53.333,135.498 53.333 C 135.407 53.333,135.333 53.227,135.333 53.097 C 135.333 52.967,135.277 52.836,135.208 52.806 C 135.140 52.775,134.897 52.394,134.670 51.958 C 134.443 51.523,134.199 51.167,134.128 51.167 C 134.058 51.167,134.000 51.086,134.000 50.987 C 134.000 50.667,131.490 48.167,131.168 48.167 C 131.070 48.167,130.946 48.054,130.894 47.917 C 130.841 47.779,130.702 47.667,130.586 47.667 C 130.469 47.667,130.281 47.554,130.167 47.417 C 130.053 47.279,129.818 47.167,129.646 47.167 C 129.474 47.167,129.333 47.096,129.333 47.010 C 129.333 46.924,128.996 46.803,128.583 46.741 C 128.171 46.679,127.833 46.562,127.833 46.481 C 127.833 46.400,127.577 46.333,127.264 46.333 C 126.951 46.333,126.669 46.262,126.639 46.174 C 126.553 45.928,121.597 45.781,120.167 45.983 C 118.106 46.273,117.667 46.364,117.667 46.497 C 117.667 46.567,117.295 46.673,116.840 46.733 C 116.386 46.794,115.974 46.907,115.925 46.986 C 115.877 47.065,115.574 47.178,115.252 47.239 C 114.930 47.299,114.667 47.420,114.667 47.508 C 114.667 47.595,114.554 47.667,114.417 47.667 C 114.279 47.667,114.167 47.742,114.167 47.833 C 114.167 47.925,114.060 48.000,113.929 48.000 C 113.798 48.000,113.588 48.094,113.463 48.208 C 113.193 48.456,112.682 48.791,112.333 48.949 C 112.196 49.011,111.727 49.423,111.292 49.864 C 110.474 50.695,110.333 50.787,110.333 50.493 C 110.333 50.225,109.535 49.351,108.469 48.451 C 107.605 47.722,107.525 47.667,107.340 47.667 C 107.245 47.667,107.167 47.593,107.167 47.503 C 107.167 47.413,106.979 47.293,106.750 47.235 C 106.521 47.178,106.333 47.067,106.333 46.989 C 106.333 46.912,106.070 46.799,105.748 46.739 C 105.426 46.678,105.122 46.562,105.072 46.481 C 105.021 46.400,104.804 46.333,104.587 46.333 C 104.371 46.333,104.163 46.240,104.126 46.127 C 104.056 45.917,97.505 45.769,96.167 45.946 M156.958 45.945 C 156.340 45.983,155.833 46.087,155.833 46.174 C 155.833 46.262,155.500 46.333,155.093 46.333 C 154.686 46.333,154.312 46.400,154.262 46.481 C 154.212 46.561,153.758 46.679,153.252 46.743 C 152.747 46.806,152.333 46.917,152.333 46.991 C 152.333 47.064,151.958 47.173,151.500 47.234 C 151.042 47.295,150.667 47.417,150.667 47.506 C 150.667 47.594,150.479 47.667,150.250 47.667 C 150.021 47.667,149.833 47.736,149.833 47.820 C 149.833 47.904,149.608 48.023,149.333 48.083 C 149.058 48.144,148.833 48.246,148.833 48.310 C 148.833 48.374,148.458 48.572,148.000 48.750 C 147.542 48.928,147.167 49.124,147.167 49.185 C 147.167 49.247,146.979 49.344,146.750 49.402 C 146.521 49.459,146.333 49.580,146.333 49.670 C 146.333 49.760,146.248 49.833,146.144 49.833 C 146.040 49.833,145.781 50.021,145.569 50.250 C 145.356 50.479,145.108 50.667,145.017 50.667 C 144.779 50.667,142.667 52.813,142.667 53.056 C 142.667 53.168,142.519 53.366,142.339 53.496 C 142.160 53.625,141.966 53.942,141.910 54.199 C 141.853 54.456,141.744 54.667,141.667 54.667 C 141.590 54.667,141.477 54.892,141.417 55.167 C 141.356 55.442,141.238 55.667,141.153 55.667 C 141.069 55.667,141.000 55.817,141.000 56.000 C 141.000 56.183,140.932 56.333,140.848 56.333 C 140.764 56.333,140.645 56.633,140.583 57.000 C 140.521 57.367,140.411 57.667,140.338 57.667 C 140.264 57.667,140.154 58.004,140.092 58.417 C 140.030 58.829,139.909 59.167,139.823 59.167 C 139.737 59.167,139.667 59.339,139.667 59.550 C 139.667 59.761,139.596 60.005,139.509 60.092 C 139.422 60.179,139.299 60.757,139.236 61.377 L 139.120 62.503 147.018 62.460 L 154.917 62.417 155.065 61.208 C 155.146 60.544,155.277 60.000,155.356 60.000 C 155.435 60.000,155.500 59.813,155.500 59.583 C 155.500 59.354,155.567 59.167,155.649 59.167 C 155.730 59.167,155.849 58.960,155.912 58.708 C 156.022 58.264,156.611 57.389,157.185 56.815 C 157.340 56.660,157.698 56.483,157.981 56.421 C 158.264 56.359,158.539 56.238,158.591 56.154 C 158.644 56.069,158.869 56.000,159.093 56.000 C 159.317 56.000,159.500 55.925,159.500 55.833 C 159.500 55.736,160.052 55.667,160.823 55.667 C 161.551 55.667,162.193 55.742,162.250 55.833 C 162.307 55.925,162.499 56.000,162.677 56.000 C 162.854 56.000,163.000 56.075,163.000 56.167 C 163.000 56.258,163.110 56.333,163.244 56.333 C 163.586 56.333,164.927 57.674,165.083 58.171 C 165.154 58.398,165.270 58.621,165.341 58.667 C 165.412 58.713,165.495 59.501,165.527 60.417 L 165.583 62.083 165.001 62.139 C 164.680 62.169,164.341 62.257,164.248 62.335 C 164.154 62.413,163.421 62.530,162.618 62.595 C 161.815 62.660,161.118 62.778,161.069 62.857 C 161.020 62.935,160.460 63.000,159.823 63.000 C 159.187 63.000,158.667 63.064,158.667 63.141 C 158.667 63.219,157.563 63.335,156.214 63.399 C 154.865 63.462,153.721 63.575,153.672 63.649 C 153.623 63.723,152.946 63.835,152.168 63.899 C 151.389 63.963,150.680 64.086,150.593 64.174 C 150.505 64.262,150.261 64.333,150.050 64.333 C 149.839 64.333,149.667 64.401,149.667 64.484 C 149.667 64.567,149.292 64.687,148.833 64.750 C 148.375 64.813,148.000 64.933,148.000 65.016 C 148.000 65.099,147.918 65.167,147.817 65.167 C 147.594 65.167,146.449 65.689,146.333 65.844 C 146.287 65.905,146.081 66.008,145.875 66.072 C 145.669 66.136,145.500 66.259,145.500 66.345 C 145.500 66.430,145.385 66.500,145.245 66.500 C 145.104 66.500,144.946 66.612,144.894 66.750 C 144.841 66.887,144.710 67.000,144.604 67.000 C 144.497 67.000,144.224 67.188,143.996 67.418 C 143.769 67.649,143.486 67.930,143.367 68.043 C 142.360 69.008,141.995 69.419,141.910 69.687 C 141.856 69.859,141.741 70.000,141.655 70.000 C 141.570 70.000,141.500 70.107,141.500 70.238 C 141.500 70.369,141.403 70.575,141.285 70.696 C 140.996 70.993,140.500 72.070,140.500 72.400 C 140.500 72.547,140.432 72.667,140.349 72.667 C 140.266 72.667,140.146 73.042,140.083 73.500 C 140.020 73.958,139.901 74.333,139.818 74.333 C 139.735 74.333,139.667 74.633,139.667 75.000 C 139.667 75.367,139.592 75.667,139.500 75.667 C 139.396 75.667,139.333 76.663,139.333 78.323 C 139.333 79.915,139.400 81.022,139.500 81.083 C 139.592 81.140,139.667 81.444,139.667 81.760 C 139.667 82.075,139.732 82.333,139.812 82.333 C 139.892 82.333,140.004 82.623,140.060 82.978 C 140.117 83.332,140.276 83.839,140.414 84.103 C 140.552 84.367,140.665 84.677,140.666 84.792 C 140.666 84.906,140.742 85.000,140.833 85.000 C 140.925 85.000,141.000 85.112,141.000 85.250 C 141.000 85.388,141.067 85.500,141.149 85.500 C 141.230 85.500,141.344 85.688,141.402 85.917 C 141.459 86.146,141.580 86.333,141.670 86.333 C 141.760 86.333,141.833 86.444,141.833 86.579 C 141.833 86.882,144.315 89.333,144.622 89.333 C 144.744 89.333,144.887 89.446,144.940 89.583 C 144.992 89.721,145.104 89.833,145.188 89.833 C 145.271 89.833,145.641 90.023,146.008 90.255 C 146.376 90.487,146.899 90.721,147.171 90.776 C 147.444 90.830,147.667 90.941,147.667 91.021 C 147.667 91.101,147.812 91.167,147.990 91.167 C 148.168 91.167,148.359 91.239,148.414 91.329 C 148.469 91.418,148.886 91.540,149.340 91.600 C 149.795 91.660,150.167 91.775,150.167 91.855 C 150.167 91.935,150.452 92.000,150.800 92.000 C 151.148 92.000,151.505 92.071,151.592 92.158 C 151.848 92.413,156.262 92.538,157.917 92.336 C 160.569 92.014,160.833 91.969,160.833 91.838 C 160.833 91.767,161.283 91.659,161.833 91.597 C 162.383 91.534,162.833 91.412,162.833 91.325 C 162.833 91.238,162.983 91.167,163.167 91.167 C 163.350 91.167,163.500 91.101,163.500 91.021 C 163.500 90.941,163.786 90.830,164.135 90.774 C 164.484 90.719,164.990 90.568,165.260 90.441 C 165.529 90.313,165.994 90.106,166.292 89.980 C 166.590 89.855,166.833 89.681,166.833 89.594 C 166.833 89.306,167.323 90.078,167.328 90.375 C 167.331 90.535,167.402 90.667,167.487 90.667 C 167.571 90.667,167.690 90.892,167.750 91.167 L 167.860 91.667 175.680 91.667 L 183.500 91.667 183.500 91.283 C 183.500 91.072,183.435 90.829,183.357 90.742 C 183.278 90.655,183.075 90.190,182.907 89.708 C 182.739 89.227,182.548 88.833,182.483 88.833 C 182.418 88.833,182.313 88.458,182.250 88.000 C 182.187 87.542,182.075 87.167,182.001 87.167 C 181.927 87.167,181.814 86.717,181.750 86.166 C 181.686 85.616,181.566 85.124,181.484 85.073 C 181.401 85.022,181.333 84.616,181.333 84.171 C 181.333 83.717,181.251 83.334,181.145 83.298 C 181.011 83.254,180.932 81.253,180.871 76.363 C 180.824 72.583,180.721 69.450,180.642 69.402 C 180.564 69.353,180.500 66.918,180.500 63.990 C 180.500 61.062,180.435 58.667,180.355 58.667 C 180.275 58.667,180.158 58.142,180.095 57.500 C 180.032 56.858,179.909 56.333,179.823 56.333 C 179.737 56.333,179.667 56.217,179.667 56.074 C 179.667 55.720,178.818 53.974,178.496 53.667 C 178.448 53.621,178.274 53.371,178.109 53.112 C 177.411 52.016,174.902 49.500,174.507 49.500 C 174.424 49.500,174.258 49.406,174.137 49.290 C 174.016 49.175,173.599 48.931,173.210 48.749 C 172.822 48.566,172.503 48.369,172.502 48.310 C 172.501 48.252,172.237 48.155,171.917 48.094 C 171.596 48.034,171.333 47.932,171.333 47.866 C 171.333 47.704,170.537 47.365,169.832 47.228 C 169.512 47.165,169.208 47.051,169.157 46.975 C 169.106 46.898,168.600 46.786,168.032 46.727 C 167.465 46.668,167.000 46.555,167.000 46.476 C 167.000 46.398,166.715 46.333,166.367 46.333 C 166.018 46.333,165.654 46.254,165.556 46.156 C 165.370 45.970,159.037 45.814,156.958 45.945 M301.083 45.945 C 300.533 45.985,300.012 46.089,299.925 46.176 C 299.838 46.262,299.444 46.333,299.050 46.333 C 298.656 46.333,298.333 46.399,298.333 46.478 C 298.333 46.558,297.883 46.675,297.333 46.737 C 296.783 46.799,296.333 46.911,296.333 46.986 C 296.333 47.061,296.016 47.165,295.629 47.217 C 295.241 47.269,294.897 47.392,294.865 47.489 C 294.832 47.587,294.624 47.667,294.403 47.667 C 294.181 47.667,294.000 47.738,294.000 47.826 C 294.000 47.913,293.737 48.034,293.417 48.094 C 293.096 48.155,292.833 48.252,292.832 48.310 C 292.831 48.369,292.493 48.565,292.082 48.746 C 291.670 48.927,291.333 49.125,291.333 49.186 C 291.333 49.247,291.146 49.344,290.917 49.402 C 290.688 49.459,290.500 49.580,290.500 49.670 C 290.500 49.760,290.387 49.833,290.250 49.833 C 290.112 49.833,290.000 49.903,290.000 49.989 C 290.000 50.074,289.841 50.195,289.647 50.256 C 289.168 50.408,286.736 52.825,286.593 53.292 C 286.529 53.498,286.408 53.667,286.322 53.667 C 286.237 53.667,286.167 53.779,286.167 53.917 C 286.167 54.054,286.093 54.167,286.003 54.167 C 285.913 54.167,285.793 54.354,285.735 54.583 C 285.678 54.813,285.576 55.000,285.509 55.000 C 285.442 55.000,285.247 55.413,285.076 55.917 C 284.905 56.421,284.714 56.833,284.653 56.833 C 284.592 56.833,284.498 57.115,284.443 57.459 C 284.387 57.804,284.193 58.395,284.009 58.775 C 283.826 59.154,283.627 59.774,283.566 60.152 C 283.506 60.531,283.391 60.881,283.311 60.930 C 283.232 60.979,283.167 61.353,283.167 61.760 L 283.167 62.500 291.083 62.500 L 299.000 62.500 299.000 61.667 C 299.000 61.208,299.075 60.833,299.167 60.833 C 299.258 60.833,299.333 60.613,299.333 60.343 C 299.333 60.074,299.400 59.812,299.481 59.762 C 299.562 59.711,299.678 59.407,299.739 59.085 C 299.799 58.763,299.920 58.500,300.008 58.500 C 300.095 58.500,300.167 58.379,300.167 58.232 C 300.167 57.541,302.386 56.000,303.381 56.000 C 303.538 56.000,303.667 55.925,303.667 55.833 C 303.667 55.736,304.222 55.667,305.000 55.667 C 305.778 55.667,306.333 55.736,306.333 55.833 C 306.333 55.925,306.521 56.000,306.750 56.000 C 306.979 56.000,307.167 56.070,307.167 56.155 C 307.167 56.241,307.328 56.362,307.526 56.425 C 307.879 56.537,308.667 57.275,308.667 57.493 C 308.667 57.554,308.819 57.767,309.005 57.967 C 309.264 58.245,309.376 58.682,309.480 59.807 C 309.555 60.620,309.672 61.373,309.739 61.483 C 309.939 61.806,309.500 62.167,308.906 62.167 C 308.602 62.167,308.310 62.236,308.258 62.321 C 308.205 62.406,307.487 62.528,306.661 62.593 C 305.835 62.657,305.119 62.775,305.070 62.855 C 305.021 62.935,304.460 63.000,303.823 63.000 C 303.187 63.000,302.667 63.064,302.667 63.141 C 302.667 63.219,301.560 63.335,300.208 63.398 C 298.856 63.462,297.725 63.586,297.694 63.674 C 297.664 63.761,297.289 63.837,296.861 63.841 C 296.433 63.845,295.746 63.924,295.333 64.018 C 294.921 64.111,294.377 64.229,294.125 64.279 C 293.873 64.330,293.667 64.428,293.667 64.498 C 293.667 64.567,293.377 64.670,293.022 64.727 C 292.668 64.784,292.161 64.943,291.897 65.081 C 291.633 65.219,291.323 65.332,291.208 65.332 C 291.094 65.333,291.000 65.408,291.000 65.500 C 291.000 65.592,290.887 65.667,290.750 65.667 C 290.612 65.667,290.500 65.742,290.500 65.833 C 290.500 65.925,290.393 66.000,290.262 66.000 C 290.131 66.000,289.921 66.103,289.796 66.228 C 289.670 66.353,289.403 66.508,289.201 66.573 C 288.999 66.637,288.833 66.759,288.833 66.845 C 288.833 66.930,288.749 67.000,288.647 67.000 C 288.383 67.000,285.879 69.592,285.751 69.998 C 285.692 70.183,285.591 70.333,285.526 70.333 C 285.461 70.333,285.260 70.670,285.079 71.082 C 284.898 71.493,284.702 71.831,284.644 71.832 C 284.586 71.833,284.487 72.169,284.426 72.579 C 284.364 72.990,284.243 73.369,284.157 73.423 C 284.071 73.476,284.000 73.696,284.000 73.913 C 284.000 74.129,283.906 74.337,283.792 74.375 C 283.633 74.428,283.583 75.370,283.583 78.333 C 283.583 81.296,283.633 82.239,283.792 82.292 C 283.906 82.330,284.000 82.580,284.000 82.847 C 284.000 83.115,284.075 83.333,284.167 83.333 C 284.258 83.333,284.333 83.450,284.333 83.592 C 284.333 84.012,285.145 85.606,285.625 86.130 C 285.740 86.255,285.833 86.431,285.833 86.520 C 285.833 86.784,288.398 89.278,288.800 89.406 C 289.001 89.470,289.167 89.592,289.167 89.678 C 289.167 89.763,289.279 89.833,289.417 89.833 C 289.554 89.833,289.667 89.907,289.667 89.997 C 289.667 90.087,289.854 90.207,290.083 90.265 C 290.313 90.322,290.500 90.433,290.500 90.511 C 290.500 90.588,290.781 90.703,291.125 90.766 C 291.469 90.830,291.787 90.927,291.833 90.982 C 292.038 91.231,292.710 91.503,293.368 91.603 C 293.761 91.663,294.158 91.768,294.250 91.836 C 295.007 92.401,302.877 92.674,303.408 92.155 C 303.495 92.070,303.847 92.000,304.190 92.000 C 304.533 92.000,304.855 91.934,304.905 91.853 C 304.955 91.772,305.409 91.654,305.914 91.591 C 306.420 91.528,306.833 91.406,306.833 91.321 C 306.833 91.236,307.021 91.167,307.250 91.167 C 307.479 91.167,307.667 91.101,307.667 91.021 C 307.667 90.941,307.967 90.828,308.333 90.769 C 308.700 90.711,309.000 90.589,309.000 90.498 C 309.000 90.407,309.157 90.333,309.349 90.333 C 309.708 90.333,310.707 89.848,310.806 89.625 C 310.919 89.369,311.167 89.512,311.167 89.833 C 311.167 90.017,311.242 90.167,311.333 90.167 C 311.425 90.167,311.500 90.249,311.500 90.350 C 311.500 90.451,311.621 90.788,311.769 91.100 L 312.038 91.667 319.784 91.667 L 327.529 91.667 327.412 90.958 C 327.347 90.569,327.228 90.225,327.147 90.194 C 327.066 90.164,327.000 89.995,327.000 89.819 C 327.000 89.644,326.930 89.500,326.844 89.500 C 326.757 89.500,326.636 89.162,326.575 88.750 C 326.513 88.337,326.403 88.000,326.330 88.000 C 326.257 88.000,326.146 87.625,326.083 87.167 C 326.020 86.708,325.901 86.333,325.818 86.333 C 325.735 86.333,325.667 86.040,325.667 85.681 C 325.667 85.322,325.593 85.003,325.503 84.972 C 325.413 84.942,325.289 84.017,325.228 82.917 C 325.166 81.817,325.061 80.879,324.993 80.833 C 324.925 80.787,324.813 75.892,324.745 69.954 C 324.677 64.017,324.557 59.118,324.478 59.069 C 324.398 59.020,324.333 58.652,324.333 58.250 C 324.333 57.848,324.268 57.479,324.189 57.430 C 324.109 57.381,323.997 57.049,323.940 56.692 C 323.883 56.336,323.724 55.828,323.586 55.564 C 323.448 55.300,323.335 54.990,323.334 54.875 C 323.334 54.760,323.258 54.667,323.167 54.667 C 323.075 54.667,323.000 54.554,323.000 54.417 C 323.000 54.279,322.933 54.167,322.851 54.167 C 322.770 54.167,322.656 53.979,322.598 53.750 C 322.541 53.521,322.420 53.333,322.330 53.333 C 322.240 53.333,322.167 53.255,322.167 53.160 C 322.167 52.872,320.015 50.600,319.094 49.917 C 318.847 49.733,318.513 49.465,318.351 49.320 C 318.189 49.175,317.706 48.912,317.279 48.736 C 316.851 48.561,316.501 48.366,316.501 48.305 C 316.500 48.243,316.275 48.144,316.000 48.083 C 315.725 48.023,315.500 47.904,315.500 47.820 C 315.500 47.736,315.396 47.667,315.269 47.667 C 315.142 47.667,314.823 47.555,314.561 47.418 C 314.298 47.281,313.915 47.168,313.708 47.168 C 313.502 47.167,313.333 47.100,313.333 47.019 C 313.333 46.938,312.846 46.820,312.250 46.756 C 311.654 46.692,311.167 46.571,311.167 46.487 C 311.167 46.402,310.844 46.333,310.450 46.333 C 310.056 46.333,309.654 46.254,309.556 46.156 C 309.370 45.970,302.932 45.809,301.083 45.945 M254.417 46.499 C 254.360 46.591,254.393 46.667,254.490 46.667 C 254.587 46.667,254.667 46.747,254.667 46.845 C 254.667 46.943,254.789 47.146,254.939 47.296 C 255.190 47.547,255.201 47.538,255.083 47.167 C 254.917 46.642,254.554 46.278,254.417 46.499 M324.640 46.416 C 324.506 46.549,324.865 48.500,325.023 48.500 C 325.102 48.500,325.167 48.669,325.168 48.875 C 325.168 49.081,325.281 49.465,325.418 49.727 C 325.555 49.990,325.667 50.346,325.667 50.519 C 325.667 50.692,325.742 50.833,325.833 50.833 C 325.925 50.833,326.000 51.002,326.001 51.208 C 326.002 51.415,326.111 51.793,326.245 52.049 C 326.378 52.305,326.536 52.774,326.596 53.092 C 326.656 53.410,326.771 53.711,326.852 53.762 C 326.934 53.812,327.000 54.036,327.000 54.260 C 327.000 54.484,327.066 54.667,327.148 54.667 C 327.229 54.667,327.346 55.002,327.407 55.413 C 327.469 55.823,327.590 56.203,327.676 56.256 C 327.763 56.309,327.833 56.499,327.833 56.677 C 327.833 56.854,327.900 57.000,327.981 57.000 C 328.062 57.000,328.179 57.336,328.241 57.746 C 328.302 58.156,328.417 58.532,328.495 58.580 C 328.574 58.629,328.688 58.968,328.750 59.333 C 328.812 59.699,328.931 60.041,329.015 60.092 C 329.098 60.144,329.167 60.332,329.167 60.510 C 329.167 60.688,329.235 60.833,329.318 60.833 C 329.401 60.833,329.520 61.208,329.583 61.667 C 329.646 62.125,329.759 62.500,329.834 62.500 C 329.909 62.500,330.021 62.800,330.083 63.166 C 330.145 63.532,330.264 63.874,330.348 63.926 C 330.432 63.977,330.500 64.203,330.500 64.427 C 330.500 64.650,330.566 64.833,330.648 64.833 C 330.729 64.833,330.846 65.169,330.907 65.579 C 330.969 65.990,331.090 66.369,331.176 66.423 C 331.263 66.476,331.333 66.665,331.333 66.843 C 331.333 67.021,331.404 67.167,331.490 67.167 C 331.576 67.167,331.697 67.504,331.759 67.917 C 331.821 68.329,331.929 68.667,332.000 68.667 C 332.071 68.667,332.179 69.004,332.241 69.417 C 332.303 69.829,332.424 70.167,332.510 70.167 C 332.596 70.167,332.667 70.354,332.667 70.583 C 332.667 70.813,332.735 71.000,332.818 71.000 C 332.901 71.000,333.020 71.375,333.083 71.833 C 333.146 72.292,333.258 72.667,333.330 72.667 C 333.403 72.667,333.514 72.938,333.576 73.271 C 333.638 73.603,333.759 74.015,333.845 74.187 C 333.930 74.359,334.065 74.634,334.145 74.797 C 334.225 74.961,334.347 75.354,334.416 75.672 C 334.485 75.990,334.590 76.287,334.649 76.333 C 334.762 76.422,335.130 77.610,335.281 78.375 C 335.331 78.627,335.429 78.833,335.500 78.833 C 335.571 78.833,335.679 79.169,335.741 79.579 C 335.802 79.990,335.923 80.369,336.010 80.423 C 336.096 80.476,336.167 80.665,336.167 80.843 C 336.167 81.021,336.242 81.167,336.333 81.167 C 336.425 81.167,336.500 81.335,336.501 81.542 C 336.502 81.748,336.615 82.133,336.753 82.397 C 336.890 82.661,337.049 83.168,337.106 83.522 C 337.163 83.877,337.275 84.167,337.355 84.167 C 337.435 84.167,337.500 84.354,337.500 84.583 C 337.500 84.813,337.566 85.000,337.648 85.000 C 337.729 85.000,337.846 85.336,337.907 85.746 C 337.969 86.156,338.081 86.531,338.157 86.578 C 338.233 86.625,338.347 86.936,338.409 87.269 C 338.472 87.602,338.586 87.996,338.664 88.146 C 339.045 88.877,339.333 89.669,339.333 89.984 C 339.333 90.176,339.408 90.333,339.500 90.333 C 339.592 90.333,339.667 90.521,339.667 90.750 C 339.667 90.979,339.742 91.167,339.833 91.167 C 339.925 91.167,340.000 91.280,340.000 91.418 C 340.000 91.640,340.870 91.665,347.208 91.627 L 354.415 91.583 354.565 90.875 C 354.647 90.485,354.772 90.167,354.842 90.167 C 354.913 90.167,355.021 89.867,355.083 89.501 C 355.145 89.135,355.264 88.793,355.348 88.741 C 355.432 88.689,355.500 88.501,355.500 88.323 C 355.500 88.146,355.565 88.000,355.645 88.000 C 355.725 88.000,355.841 87.683,355.903 87.297 C 355.965 86.910,356.069 86.554,356.134 86.505 C 356.299 86.382,356.835 84.814,356.834 84.458 C 356.834 84.298,356.899 84.167,356.979 84.167 C 357.059 84.167,357.172 83.867,357.231 83.500 C 357.289 83.133,357.411 82.833,357.502 82.833 C 357.593 82.833,357.667 82.650,357.667 82.427 C 357.667 82.203,357.735 81.977,357.819 81.926 C 357.903 81.874,358.022 81.532,358.083 81.166 C 358.145 80.800,358.256 80.500,358.329 80.500 C 358.403 80.500,358.514 80.228,358.576 79.896 C 358.638 79.564,358.759 79.152,358.845 78.979 C 358.930 78.807,359.065 78.533,359.145 78.370 C 359.225 78.206,359.345 77.826,359.411 77.525 C 359.477 77.224,359.636 76.776,359.765 76.530 C 359.893 76.285,359.998 75.915,359.999 75.708 C 360.000 75.502,360.075 75.333,360.167 75.333 C 360.258 75.333,360.333 75.146,360.333 74.917 C 360.333 74.688,360.408 74.500,360.500 74.500 C 360.592 74.500,360.667 74.343,360.667 74.150 C 360.667 73.835,360.955 73.043,361.336 72.312 C 361.414 72.163,361.528 71.769,361.590 71.437 C 361.653 71.105,361.766 70.833,361.842 70.833 C 361.918 70.833,362.030 70.496,362.092 70.083 C 362.154 69.671,362.271 69.333,362.352 69.333 C 362.434 69.333,362.500 69.188,362.500 69.010 C 362.500 68.832,362.571 68.643,362.657 68.589 C 362.743 68.536,362.864 68.156,362.926 67.746 C 362.987 67.336,363.103 67.000,363.184 67.000 C 363.264 67.000,363.377 66.700,363.436 66.333 C 363.495 65.967,363.608 65.667,363.688 65.667 C 363.768 65.667,363.833 65.479,363.833 65.250 C 363.833 65.021,363.908 64.833,364.000 64.833 C 364.092 64.833,364.167 64.676,364.167 64.484 C 364.167 64.169,364.455 63.377,364.836 62.646 C 364.914 62.496,365.028 62.102,365.091 61.769 C 365.153 61.436,365.264 61.126,365.338 61.081 C 365.411 61.035,365.522 60.699,365.583 60.332 C 365.645 59.966,365.764 59.667,365.848 59.667 C 365.932 59.667,366.000 59.521,366.000 59.343 C 366.000 59.165,366.071 58.976,366.157 58.923 C 366.243 58.869,366.364 58.490,366.426 58.079 C 366.487 57.669,366.598 57.333,366.671 57.333 C 366.744 57.333,366.855 57.033,366.917 56.667 C 366.979 56.300,367.098 56.000,367.181 56.000 C 367.265 56.000,367.333 55.813,367.333 55.583 C 367.333 55.354,367.399 55.167,367.479 55.167 C 367.559 55.167,367.670 54.877,367.727 54.522 C 367.784 54.168,367.943 53.661,368.081 53.397 C 368.219 53.133,368.332 52.748,368.332 52.542 C 368.333 52.335,368.408 52.167,368.500 52.167 C 368.592 52.167,368.667 52.021,368.667 51.843 C 368.667 51.665,368.733 51.479,368.814 51.428 C 368.896 51.378,369.015 51.055,369.080 50.711 C 369.144 50.366,369.247 50.046,369.308 50.000 C 369.464 49.883,370.002 48.308,370.001 47.972 C 370.000 47.819,370.064 47.669,370.143 47.639 C 370.221 47.608,370.337 47.302,370.400 46.958 L 370.515 46.333 362.382 46.333 L 354.248 46.333 354.052 46.792 C 353.944 47.044,353.804 47.606,353.742 48.042 C 353.680 48.477,353.571 48.833,353.500 48.833 C 353.430 48.833,353.320 49.246,353.257 49.750 C 353.194 50.254,353.073 50.667,352.988 50.667 C 352.903 50.667,352.833 50.850,352.833 51.073 C 352.833 51.297,352.767 51.521,352.686 51.571 C 352.605 51.622,352.486 52.012,352.422 52.439 C 352.358 52.866,352.244 53.336,352.168 53.483 C 351.929 53.948,351.500 55.523,351.500 55.936 C 351.500 56.154,351.430 56.333,351.345 56.333 C 351.260 56.333,351.139 56.746,351.076 57.250 C 351.013 57.754,350.895 58.167,350.814 58.167 C 350.733 58.167,350.667 58.350,350.667 58.573 C 350.667 58.797,350.599 59.022,350.516 59.074 C 350.433 59.125,350.313 59.542,350.250 60.000 C 350.187 60.458,350.076 60.833,350.004 60.833 C 349.931 60.833,349.820 61.246,349.757 61.750 C 349.694 62.254,349.573 62.667,349.488 62.667 C 349.403 62.667,349.333 62.887,349.333 63.157 C 349.333 63.426,349.265 63.689,349.182 63.740 C 349.099 63.792,348.980 64.209,348.917 64.667 C 348.854 65.125,348.741 65.537,348.667 65.583 C 348.592 65.629,348.480 66.042,348.417 66.500 C 348.354 66.958,348.234 67.333,348.151 67.333 C 348.068 67.333,348.000 67.558,348.000 67.833 C 348.000 68.108,347.925 68.333,347.833 68.333 C 347.742 68.333,347.667 68.477,347.667 68.653 C 347.667 69.088,347.496 69.500,347.316 69.500 C 347.234 69.500,347.167 69.237,347.167 68.917 C 347.167 68.596,347.099 68.333,347.016 68.333 C 346.933 68.333,346.813 67.958,346.750 67.500 C 346.687 67.042,346.574 66.629,346.500 66.583 C 346.426 66.537,346.313 66.125,346.250 65.666 C 346.187 65.208,346.067 64.833,345.984 64.833 C 345.901 64.833,345.833 64.608,345.833 64.333 C 345.833 64.058,345.765 63.833,345.682 63.833 C 345.599 63.833,345.480 63.458,345.417 63.000 C 345.354 62.542,345.241 62.129,345.167 62.083 C 345.092 62.037,344.980 61.625,344.917 61.166 C 344.854 60.708,344.734 60.333,344.651 60.333 C 344.568 60.333,344.500 60.113,344.500 59.843 C 344.500 59.574,344.429 59.309,344.343 59.256 C 344.257 59.203,344.135 58.822,344.074 58.411 C 344.012 57.999,343.895 57.622,343.814 57.571 C 343.733 57.521,343.667 57.260,343.667 56.990 C 343.667 56.721,343.599 56.500,343.516 56.500 C 343.433 56.500,343.313 56.125,343.250 55.667 C 343.187 55.209,343.074 54.796,343.000 54.750 C 342.926 54.704,342.813 54.291,342.750 53.833 C 342.687 53.375,342.567 53.000,342.484 53.000 C 342.401 53.000,342.333 52.775,342.333 52.500 C 342.333 52.225,342.264 52.000,342.179 52.000 C 342.094 52.000,341.972 51.587,341.909 51.083 C 341.846 50.579,341.736 50.167,341.663 50.167 C 341.591 50.167,341.480 49.792,341.417 49.333 C 341.354 48.875,341.234 48.500,341.151 48.500 C 341.068 48.500,341.000 48.275,341.000 48.000 C 341.000 47.725,340.925 47.500,340.833 47.500 C 340.742 47.500,340.667 47.356,340.667 47.180 C 340.667 46.288,341.100 46.333,332.593 46.333 C 328.264 46.333,324.685 46.371,324.640 46.416 M186.167 69.167 L 186.167 91.667 193.833 91.667 L 201.500 91.667 201.500 69.167 L 201.500 46.667 193.833 46.667 L 186.167 46.667 186.167 69.167 M372.167 69.167 L 372.167 91.667 379.667 91.667 L 387.167 91.667 387.167 69.167 L 387.167 46.667 379.667 46.667 L 372.167 46.667 372.167 69.167 M255.167 47.833 C 255.167 47.925,255.242 48.000,255.333 48.000 C 255.425 48.000,255.500 48.080,255.500 48.179 C 255.500 48.277,255.625 48.482,255.777 48.634 C 256.064 48.922,256.057 48.885,255.676 48.125 C 255.449 47.672,255.167 47.510,255.167 47.833 M256.000 49.167 C 256.000 49.258,256.067 49.333,256.149 49.333 C 256.230 49.333,256.344 49.521,256.402 49.750 C 256.459 49.979,256.586 50.167,256.684 50.167 C 256.781 50.167,256.834 50.110,256.800 50.042 C 256.300 49.016,256.000 48.687,256.000 49.167 M256.833 50.500 C 256.833 50.592,256.900 50.667,256.982 50.667 C 257.064 50.667,257.178 50.854,257.235 51.083 C 257.336 51.484,257.667 51.676,257.667 51.333 C 257.667 51.242,257.600 51.167,257.518 51.167 C 257.436 51.167,257.322 50.979,257.265 50.750 C 257.164 50.349,256.833 50.157,256.833 50.500 M257.944 52.278 C 257.892 52.330,257.962 52.486,258.099 52.623 C 258.237 52.761,258.392 52.830,258.444 52.778 C 258.497 52.725,258.427 52.570,258.290 52.433 C 258.152 52.295,257.997 52.225,257.944 52.278 M258.590 53.326 C 258.656 53.550,258.817 53.841,258.947 53.970 C 259.352 54.376,259.317 54.109,258.884 53.500 C 258.549 53.029,258.492 52.995,258.590 53.326 M244.500 56.333 C 244.500 56.425,244.567 56.500,244.649 56.500 C 244.730 56.500,244.844 56.688,244.902 56.917 C 245.002 57.318,245.333 57.509,245.333 57.167 C 245.333 57.075,245.266 57.000,245.185 57.000 C 245.103 57.000,244.989 56.813,244.932 56.583 C 244.831 56.182,244.500 55.991,244.500 56.333 M260.333 56.313 C 260.333 56.416,260.403 56.500,260.488 56.500 C 260.573 56.500,260.677 56.631,260.718 56.792 C 260.783 57.038,260.798 57.041,260.814 56.812 C 260.825 56.663,260.721 56.447,260.583 56.333 C 260.411 56.190,260.333 56.184,260.333 56.313 M245.366 57.625 C 245.866 58.651,246.167 58.979,246.167 58.500 C 246.167 58.408,246.093 58.333,246.003 58.333 C 245.913 58.333,245.793 58.146,245.735 57.917 C 245.678 57.688,245.557 57.500,245.468 57.500 C 245.379 57.500,245.333 57.556,245.366 57.625 M261.167 57.799 C 261.167 57.887,261.288 58.060,261.436 58.183 C 261.669 58.376,261.697 58.364,261.644 58.092 C 261.581 57.768,261.167 57.514,261.167 57.799 M262.003 59.089 C 262.007 59.376,262.312 59.744,262.439 59.616 C 262.508 59.548,262.437 59.365,262.282 59.210 C 262.127 59.055,262.001 59.001,262.003 59.089 M246.444 59.444 C 246.392 59.497,246.462 59.652,246.599 59.790 C 246.737 59.927,246.892 59.997,246.944 59.944 C 246.997 59.892,246.927 59.737,246.790 59.599 C 246.652 59.462,246.497 59.392,246.444 59.444 M262.836 60.423 C 262.840 60.710,263.145 61.077,263.273 60.950 C 263.341 60.881,263.270 60.699,263.115 60.544 C 262.960 60.389,262.834 60.334,262.836 60.423 M247.167 60.813 C 247.167 60.893,247.279 61.053,247.417 61.167 C 247.688 61.392,247.722 61.338,247.566 60.930 C 247.458 60.651,247.167 60.565,247.167 60.813 M263.500 61.762 C 263.500 61.938,263.959 62.318,264.056 62.222 C 264.108 62.170,264.047 62.023,263.921 61.897 C 263.681 61.657,263.500 61.599,263.500 61.762 M248.000 62.146 C 248.000 62.227,248.112 62.386,248.250 62.500 C 248.521 62.725,248.555 62.671,248.399 62.264 C 248.292 61.985,248.000 61.899,248.000 62.146 M264.333 63.095 C 264.333 63.148,264.446 63.303,264.583 63.440 C 264.855 63.712,264.889 63.671,264.732 63.264 C 264.637 63.016,264.333 62.888,264.333 63.095 M265.167 64.500 C 265.167 64.592,265.234 64.667,265.315 64.667 C 265.397 64.667,265.511 64.854,265.568 65.083 C 265.669 65.484,266.000 65.676,266.000 65.333 C 266.000 65.242,265.933 65.167,265.851 65.167 C 265.770 65.167,265.656 64.979,265.598 64.750 C 265.498 64.349,265.167 64.157,265.167 64.500 M266.000 65.813 C 266.000 65.916,266.070 66.000,266.154 66.000 C 266.239 66.000,266.343 66.131,266.385 66.292 C 266.449 66.538,266.464 66.541,266.481 66.312 C 266.491 66.163,266.387 65.947,266.250 65.833 C 266.077 65.690,266.000 65.684,266.000 65.813 M251.167 67.627 C 251.167 67.696,251.317 67.847,251.500 67.961 C 251.888 68.203,251.939 68.082,251.595 67.738 C 251.333 67.475,251.167 67.432,251.167 67.627 M252.000 68.929 C 252.000 68.981,252.112 69.136,252.250 69.274 C 252.521 69.545,252.555 69.505,252.399 69.097 C 252.304 68.849,252.000 68.721,252.000 68.929 M252.833 70.262 C 252.833 70.314,252.946 70.470,253.083 70.607 C 253.355 70.878,253.389 70.838,253.232 70.430 C 253.137 70.183,252.833 70.054,252.833 70.262 M253.667 71.599 C 253.667 71.654,253.795 71.916,253.953 72.183 C 254.237 72.665,254.500 72.817,254.500 72.500 C 254.500 72.408,254.433 72.333,254.351 72.333 C 254.270 72.333,254.156 72.146,254.098 71.917 C 254.009 71.560,253.667 71.309,253.667 71.599 M165.667 75.974 L 165.667 79.781 164.958 80.135 C 164.569 80.330,164.025 80.540,163.750 80.601 C 163.475 80.663,163.175 80.757,163.083 80.811 C 162.718 81.026,161.228 81.489,160.885 81.495 C 160.684 81.498,160.473 81.575,160.417 81.667 C 160.360 81.758,159.756 81.833,159.073 81.833 C 158.358 81.833,157.833 81.763,157.833 81.667 C 157.833 81.575,157.694 81.500,157.524 81.500 C 157.177 81.500,155.500 79.904,155.500 79.573 C 155.500 79.457,155.406 79.330,155.292 79.291 C 155.013 79.198,155.027 76.463,155.307 76.370 C 155.413 76.335,155.500 76.162,155.500 75.986 C 155.500 75.810,155.574 75.667,155.663 75.667 C 155.753 75.667,155.871 75.492,155.924 75.279 C 155.978 75.066,156.181 74.785,156.376 74.654 C 156.571 74.523,156.907 74.248,157.122 74.043 C 157.337 73.837,157.829 73.619,158.215 73.559 C 158.601 73.499,158.954 73.394,159.000 73.325 C 159.046 73.257,159.796 73.120,160.667 73.020 C 163.322 72.717,163.737 72.654,164.083 72.496 C 164.267 72.413,164.642 72.316,164.917 72.281 C 165.192 72.246,165.473 72.205,165.542 72.192 C 165.610 72.178,165.667 73.880,165.667 75.974 M309.833 76.000 C 309.833 79.296,309.798 79.833,309.583 79.833 C 309.446 79.833,309.333 79.908,309.333 80.000 C 309.333 80.092,309.229 80.167,309.102 80.167 C 308.975 80.167,308.657 80.279,308.394 80.416 C 308.131 80.553,307.748 80.665,307.542 80.666 C 307.335 80.666,307.167 80.725,307.167 80.795 C 307.167 80.927,306.016 81.278,305.042 81.444 C 304.744 81.495,304.500 81.603,304.500 81.685 C 304.500 81.767,303.938 81.833,303.250 81.833 C 302.528 81.833,302.000 81.763,302.000 81.667 C 302.000 81.575,301.829 81.500,301.620 81.500 C 301.166 81.500,299.556 79.863,299.400 79.244 C 299.344 79.018,299.230 78.833,299.149 78.833 C 299.067 78.833,299.000 78.458,299.000 78.000 C 299.000 77.542,299.075 77.167,299.167 77.167 C 299.258 77.167,299.333 77.022,299.333 76.845 C 299.333 76.373,300.356 74.515,300.671 74.415 C 300.820 74.368,301.107 74.175,301.309 73.987 C 301.511 73.798,301.956 73.600,302.297 73.546 C 302.638 73.492,302.954 73.395,303.000 73.330 C 303.074 73.226,304.685 72.999,307.292 72.727 C 307.773 72.677,308.167 72.572,308.167 72.494 C 308.167 72.416,308.485 72.324,308.875 72.289 C 309.265 72.254,309.640 72.212,309.708 72.196 C 309.777 72.180,309.833 73.892,309.833 76.000 M254.520 72.920 C 254.960 73.895,255.333 74.315,255.333 73.833 C 255.333 73.742,255.258 73.667,255.167 73.667 C 255.075 73.667,255.000 73.586,255.000 73.488 C 255.000 73.390,254.875 73.185,254.723 73.033 C 254.571 72.881,254.480 72.830,254.520 72.920 M255.518 74.708 C 256.033 75.454,256.059 75.473,255.915 75.008 C 255.789 74.597,255.449 74.167,255.251 74.167 C 255.192 74.167,255.312 74.410,255.518 74.708 M256.084 75.665 C 256.027 75.758,256.060 75.833,256.157 75.833 C 256.254 75.833,256.333 75.914,256.333 76.012 C 256.333 76.110,256.456 76.313,256.605 76.462 C 256.857 76.714,256.868 76.704,256.750 76.333 C 256.583 75.808,256.221 75.444,256.084 75.665 M256.833 77.000 C 256.833 77.092,256.900 77.167,256.982 77.167 C 257.064 77.167,257.178 77.354,257.235 77.583 C 257.336 77.984,257.667 78.176,257.667 77.833 C 257.667 77.742,257.600 77.667,257.518 77.667 C 257.436 77.667,257.322 77.479,257.265 77.250 C 257.164 76.849,256.833 76.657,256.833 77.000 M257.667 78.333 C 257.667 78.425,257.734 78.500,257.815 78.500 C 257.897 78.500,258.011 78.688,258.068 78.917 C 258.169 79.318,258.500 79.509,258.500 79.167 C 258.500 79.075,258.433 79.000,258.351 79.000 C 258.270 79.000,258.156 78.813,258.098 78.583 C 257.998 78.182,257.667 77.991,257.667 78.333 M258.500 79.667 C 258.500 79.758,258.567 79.833,258.649 79.833 C 258.730 79.833,258.844 80.021,258.902 80.250 C 259.002 80.651,259.333 80.843,259.333 80.500 C 259.333 80.408,259.266 80.333,259.185 80.333 C 259.103 80.333,258.989 80.146,258.932 79.917 C 258.831 79.516,258.500 79.324,258.500 79.667 M259.333 80.978 C 259.333 81.071,259.410 81.194,259.503 81.252 C 259.596 81.309,259.634 81.418,259.588 81.493 C 259.472 81.680,259.979 82.079,260.129 81.918 C 260.196 81.846,260.156 81.754,260.042 81.713 C 259.927 81.672,259.833 81.565,259.833 81.474 C 259.833 81.384,259.721 81.197,259.583 81.060 C 259.446 80.922,259.333 80.885,259.333 80.978 M260.167 82.456 C 260.167 82.699,260.785 83.437,260.896 83.326 C 260.946 83.276,260.802 83.021,260.577 82.759 C 260.351 82.496,260.167 82.360,260.167 82.456 M261.167 84.167 C 261.362 84.442,261.553 84.667,261.589 84.667 C 261.705 84.667,261.444 84.092,261.230 83.875 C 260.847 83.487,260.809 83.664,261.167 84.167 M261.667 85.167 C 261.667 85.258,261.733 85.333,261.814 85.333 C 261.895 85.333,262.000 85.483,262.048 85.667 C 262.096 85.850,262.214 86.000,262.310 86.000 C 262.407 86.000,262.359 85.779,262.201 85.501 C 261.919 85.005,261.667 84.848,261.667 85.167 M262.500 86.500 C 262.500 86.592,262.566 86.667,262.647 86.667 C 262.728 86.667,262.834 86.817,262.882 87.000 C 262.930 87.183,263.070 87.332,263.193 87.331 C 263.346 87.329,263.358 87.290,263.231 87.206 C 263.129 87.138,262.992 86.915,262.928 86.708 C 262.811 86.335,262.500 86.183,262.500 86.500 M263.333 87.833 C 263.333 87.925,263.408 88.000,263.500 88.000 C 263.592 88.000,263.667 88.103,263.667 88.230 C 263.667 88.356,263.779 88.553,263.917 88.667 C 264.089 88.810,264.167 88.816,264.167 88.687 C 264.167 88.584,264.100 88.500,264.018 88.500 C 263.936 88.500,263.822 88.313,263.765 88.083 C 263.664 87.682,263.333 87.491,263.333 87.833 M264.462 89.427 C 264.334 89.634,264.791 90.265,264.952 90.104 C 265.019 90.037,264.993 89.930,264.895 89.866 C 264.797 89.802,264.682 89.641,264.639 89.508 C 264.596 89.375,264.516 89.339,264.462 89.427 " stroke="none" fill="#fcfcfc" fill-rule="evenodd"></path><path id="path1" d="M230.041 61.125 L 230.083 91.417 236.750 91.463 C 240.417 91.489,243.585 91.468,243.792 91.418 L 244.167 91.327 244.167 73.497 C 244.167 61.721,244.223 55.667,244.333 55.667 C 244.425 55.667,244.500 55.779,244.500 55.917 C 244.500 56.054,244.574 56.167,244.663 56.167 C 244.753 56.167,244.874 56.354,244.932 56.583 C 244.989 56.813,245.103 57.000,245.185 57.000 C 245.266 57.000,245.333 57.112,245.333 57.250 C 245.333 57.387,245.417 57.500,245.519 57.500 C 245.626 57.500,245.667 57.649,245.614 57.850 C 245.564 58.042,245.564 58.158,245.614 58.108 C 245.779 57.943,246.169 58.468,246.274 58.996 C 246.331 59.280,246.414 59.475,246.458 59.430 C 246.631 59.258,246.994 59.822,246.888 60.098 C 246.812 60.296,246.839 60.350,246.972 60.268 C 247.089 60.195,247.167 60.251,247.167 60.407 C 247.167 60.550,247.234 60.667,247.317 60.667 C 247.400 60.667,247.541 60.873,247.631 61.125 C 247.721 61.377,247.953 61.764,248.147 61.984 C 248.341 62.204,248.500 62.523,248.500 62.692 C 248.500 62.861,248.579 63.000,248.677 63.000 C 248.774 63.000,248.807 63.075,248.750 63.167 C 248.693 63.258,248.734 63.333,248.841 63.333 C 248.948 63.333,248.992 63.446,248.940 63.583 C 248.881 63.736,248.939 63.833,249.089 63.833 C 249.223 63.833,249.333 63.946,249.333 64.083 C 249.333 64.221,249.400 64.333,249.482 64.333 C 249.564 64.333,249.678 64.521,249.735 64.750 C 249.793 64.979,249.913 65.167,250.003 65.167 C 250.093 65.167,250.167 65.279,250.167 65.417 C 250.167 65.554,250.242 65.667,250.333 65.667 C 250.425 65.667,250.500 65.746,250.500 65.843 C 250.500 65.940,250.406 65.969,250.292 65.907 C 250.177 65.845,250.279 65.972,250.518 66.189 C 250.757 66.406,251.011 66.771,251.083 67.000 C 251.155 67.229,251.354 67.538,251.524 67.686 C 251.875 67.992,251.939 68.240,251.625 68.081 C 251.510 68.023,251.548 68.083,251.708 68.214 C 251.869 68.346,252.000 68.539,252.000 68.643 C 252.000 68.748,252.074 68.833,252.163 68.833 C 252.253 68.833,252.374 69.021,252.432 69.250 C 252.489 69.479,252.603 69.667,252.685 69.667 C 252.766 69.667,252.833 69.779,252.833 69.917 C 252.833 70.054,252.907 70.167,252.997 70.167 C 253.087 70.167,253.207 70.354,253.265 70.583 C 253.322 70.813,253.436 71.000,253.518 71.000 C 253.600 71.000,253.667 71.112,253.667 71.250 C 253.667 71.387,253.740 71.500,253.830 71.500 C 253.920 71.500,254.041 71.688,254.098 71.917 C 254.156 72.146,254.262 72.333,254.333 72.333 C 254.405 72.333,254.511 72.521,254.568 72.750 C 254.626 72.979,254.747 73.167,254.837 73.167 C 254.926 73.167,255.000 73.279,255.000 73.417 C 255.000 73.554,255.083 73.667,255.184 73.667 C 255.286 73.667,255.330 73.768,255.283 73.891 C 255.236 74.014,255.340 74.218,255.514 74.344 C 255.689 74.470,255.879 74.822,255.936 75.127 C 255.993 75.433,256.077 75.645,256.123 75.599 C 256.252 75.470,256.609 75.888,256.750 76.333 C 256.820 76.554,256.980 76.837,257.105 76.962 C 257.231 77.088,257.333 77.298,257.333 77.429 C 257.333 77.560,257.408 77.667,257.500 77.667 C 257.592 77.667,257.667 77.779,257.667 77.917 C 257.667 78.054,257.740 78.167,257.830 78.167 C 257.920 78.167,258.041 78.354,258.098 78.583 C 258.156 78.813,258.270 79.000,258.351 79.000 C 258.433 79.000,258.500 79.112,258.500 79.250 C 258.500 79.387,258.574 79.500,258.663 79.500 C 258.753 79.500,258.874 79.688,258.932 79.917 C 258.989 80.146,259.095 80.333,259.167 80.333 C 259.238 80.333,259.344 80.521,259.402 80.750 C 259.459 80.979,259.580 81.167,259.670 81.167 C 259.760 81.167,259.833 81.279,259.833 81.417 C 259.833 81.554,259.916 81.667,260.018 81.667 C 260.119 81.667,260.158 81.781,260.104 81.922 C 260.046 82.074,260.205 82.384,260.500 82.693 C 260.771 82.977,260.950 83.279,260.898 83.363 C 260.846 83.448,260.955 83.649,261.140 83.810 C 261.326 83.971,261.528 84.305,261.590 84.552 C 261.652 84.798,261.753 85.000,261.814 85.000 C 261.874 85.000,262.072 85.281,262.253 85.625 C 262.434 85.969,262.676 86.349,262.791 86.470 C 262.906 86.591,263.000 86.798,263.000 86.929 C 263.000 87.060,263.079 87.167,263.177 87.167 C 263.274 87.167,263.306 87.242,263.249 87.335 C 263.192 87.427,263.267 87.549,263.416 87.606 C 263.564 87.663,263.645 87.816,263.595 87.947 C 263.544 88.078,263.577 88.139,263.669 88.082 C 263.759 88.026,263.833 88.097,263.833 88.240 C 263.833 88.383,263.902 88.500,263.987 88.500 C 264.071 88.500,264.190 88.726,264.250 89.001 C 264.311 89.277,264.429 89.460,264.514 89.408 C 264.598 89.356,264.667 89.431,264.667 89.573 C 264.667 89.716,264.734 89.833,264.815 89.833 C 264.897 89.833,265.011 90.021,265.068 90.250 C 265.126 90.479,265.247 90.667,265.337 90.667 C 265.426 90.667,265.500 90.747,265.500 90.845 C 265.500 91.480,265.735 91.500,273.318 91.500 L 280.660 91.500 280.751 91.125 C 280.800 90.919,280.821 77.287,280.796 60.833 L 280.750 30.917 273.625 30.873 L 266.500 30.830 266.481 48.707 C 266.470 58.539,266.427 66.452,266.385 66.292 C 266.343 66.131,266.239 66.000,266.154 66.000 C 266.070 66.000,266.000 65.887,266.000 65.750 C 266.000 65.612,265.926 65.500,265.837 65.500 C 265.747 65.500,265.626 65.313,265.568 65.083 C 265.511 64.854,265.397 64.667,265.315 64.667 C 265.234 64.667,265.167 64.554,265.167 64.417 C 265.167 64.279,265.087 64.167,264.989 64.167 C 264.881 64.167,264.856 64.018,264.926 63.792 C 264.990 63.585,264.986 63.469,264.918 63.534 C 264.723 63.717,264.339 63.238,264.226 62.671 C 264.169 62.387,264.086 62.192,264.042 62.236 C 263.914 62.363,263.557 61.942,263.417 61.500 C 263.347 61.279,263.187 60.996,263.061 60.871 C 262.936 60.745,262.833 60.536,262.833 60.405 C 262.833 60.274,262.758 60.167,262.667 60.167 C 262.575 60.167,262.500 60.054,262.500 59.917 C 262.500 59.779,262.426 59.667,262.337 59.667 C 262.247 59.667,262.126 59.479,262.068 59.250 C 262.011 59.021,261.897 58.833,261.815 58.833 C 261.734 58.833,261.667 58.730,261.667 58.604 C 261.667 58.477,261.554 58.281,261.417 58.167 C 261.279 58.053,261.167 57.818,261.167 57.646 C 261.167 57.474,261.087 57.333,260.990 57.333 C 260.893 57.333,260.860 57.258,260.917 57.167 C 260.973 57.075,260.940 57.000,260.843 57.000 C 260.746 57.000,260.667 56.887,260.667 56.750 C 260.667 56.612,260.592 56.500,260.500 56.500 C 260.408 56.500,260.333 56.387,260.333 56.250 C 260.333 56.112,260.266 56.000,260.185 56.000 C 260.103 56.000,259.989 55.813,259.932 55.583 C 259.874 55.354,259.753 55.167,259.663 55.167 C 259.574 55.167,259.500 55.054,259.500 54.917 C 259.500 54.779,259.421 54.667,259.323 54.667 C 259.226 54.667,259.196 54.588,259.255 54.491 C 259.315 54.395,259.218 54.188,259.039 54.033 C 258.861 53.877,258.655 53.563,258.583 53.333 C 258.511 53.104,258.325 52.804,258.169 52.667 C 258.013 52.529,257.918 52.323,257.957 52.208 C 257.996 52.094,257.947 52.000,257.847 52.000 C 257.748 52.000,257.667 51.887,257.667 51.750 C 257.667 51.612,257.593 51.500,257.503 51.500 C 257.413 51.500,257.293 51.313,257.235 51.083 C 257.178 50.854,257.064 50.667,256.982 50.667 C 256.900 50.667,256.833 50.554,256.833 50.417 C 256.833 50.279,256.760 50.167,256.670 50.167 C 256.580 50.167,256.459 49.979,256.402 49.750 C 256.344 49.521,256.238 49.333,256.167 49.333 C 256.095 49.333,255.989 49.146,255.932 48.917 C 255.874 48.688,255.753 48.500,255.663 48.500 C 255.574 48.500,255.500 48.387,255.500 48.250 C 255.500 48.112,255.433 48.000,255.351 48.000 C 255.270 48.000,255.156 47.813,255.098 47.583 C 255.041 47.354,254.920 47.167,254.830 47.167 C 254.740 47.167,254.667 47.054,254.667 46.917 C 254.667 46.779,254.587 46.667,254.490 46.667 C 254.393 46.667,254.362 46.588,254.422 46.491 C 254.482 46.395,254.384 46.188,254.206 46.033 C 254.027 45.877,253.823 45.566,253.752 45.341 C 253.681 45.116,253.520 44.830,253.395 44.704 C 253.269 44.579,253.167 44.369,253.167 44.238 C 253.167 44.107,253.092 44.000,253.000 44.000 C 252.908 44.000,252.833 43.887,252.833 43.750 C 252.833 43.612,252.760 43.500,252.670 43.500 C 252.580 43.500,252.459 43.313,252.402 43.083 C 252.344 42.854,252.230 42.667,252.149 42.667 C 252.067 42.667,252.000 42.554,252.000 42.417 C 252.000 42.279,251.933 42.167,251.851 42.167 C 251.770 42.167,251.656 41.979,251.598 41.750 C 251.541 41.521,251.423 41.333,251.338 41.333 C 251.252 41.333,251.132 41.067,251.071 40.742 C 251.010 40.417,250.923 40.189,250.877 40.234 C 250.751 40.360,250.333 39.890,250.333 39.621 C 250.333 39.491,250.150 39.172,249.926 38.911 C 249.702 38.651,249.559 38.373,249.608 38.293 C 249.657 38.214,249.545 38.017,249.360 37.856 C 249.174 37.695,248.972 37.362,248.910 37.115 C 248.848 36.868,248.712 36.666,248.607 36.664 C 248.502 36.663,248.529 36.589,248.667 36.500 C 248.880 36.362,248.873 36.338,248.621 36.336 C 248.459 36.334,248.236 36.127,248.125 35.875 C 248.014 35.623,247.884 35.379,247.837 35.333 C 247.670 35.173,247.323 34.581,247.226 34.292 C 247.172 34.131,247.070 34.000,246.999 34.000 C 246.928 34.000,246.822 33.813,246.765 33.583 C 246.707 33.354,246.587 33.167,246.497 33.167 C 246.407 33.167,246.333 33.054,246.333 32.917 C 246.333 32.779,246.254 32.667,246.157 32.667 C 246.060 32.667,246.029 32.588,246.089 32.491 C 246.148 32.395,246.045 32.184,245.860 32.023 C 245.674 31.862,245.472 31.528,245.410 31.282 L 245.297 30.833 237.648 30.833 L 229.999 30.833 230.041 61.125 " stroke="none" fill="#dc2424" fill-rule="evenodd"></path></g></svg>