<svg id="svg" xmlns="http://www.w3.org/2000/svg" xmlns:xlink="http://www.w3.org/1999/xlink" width="400" height="97.05882352941177" viewBox="0, 0, 400,97.05882352941177"><g id="svgg"><path id="path0" d="M8.902 25.281 C 6.246 26.237,3.816 28.499,3.215 30.575 C 3.015 31.264,2.943 40.496,3.001 57.794 L 3.088 83.971 3.808 85.434 C 4.725 87.298,6.506 89.078,8.382 90.007 L 9.853 90.735 31.838 90.818 L 53.824 90.900 53.824 85.597 L 53.824 80.294 36.771 80.294 L 19.719 80.294 19.267 79.603 C 18.881 79.015,18.826 77.674,18.892 70.559 L 18.971 62.206 34.485 62.130 L 50.000 62.054 50.000 56.909 L 50.000 51.765 34.412 51.765 L 18.824 51.765 18.824 43.882 C 18.824 38.144,18.920 35.904,19.176 35.647 C 19.443 35.381,23.601 35.294,36.088 35.294 L 52.647 35.294 52.647 30.000 L 52.647 24.706 31.544 24.716 C 11.634 24.727,10.354 24.758,8.902 25.281 M178.824 32.059 L 178.824 39.412 186.765 39.412 L 194.706 39.412 194.706 32.059 L 194.706 24.706 186.765 24.706 L 178.824 24.706 178.824 32.059 M203.824 57.794 L 203.824 90.882 211.765 90.882 L 219.706 90.882 219.706 57.794 L 219.706 24.706 211.765 24.706 L 203.824 24.706 203.824 57.794 M226.471 57.794 L 226.471 90.882 234.116 90.882 L 241.761 90.882 241.836 70.975 L 241.912 51.067 253.813 70.975 L 265.713 90.882 273.739 90.882 L 281.765 90.882 281.765 57.794 L 281.765 24.706 274.265 24.706 L 266.765 24.706 266.765 44.412 C 266.765 55.250,266.665 64.111,266.544 64.102 C 266.423 64.093,261.046 55.226,254.595 44.396 L 242.867 24.706 234.669 24.706 L 226.471 24.706 226.471 57.794 M382.353 32.059 L 382.353 39.412 390.294 39.412 L 398.235 39.412 398.235 32.059 L 398.235 24.706 390.294 24.706 L 382.353 24.706 382.353 32.059 M80.588 41.380 C 78.760 41.685,76.093 42.774,74.586 43.829 L 72.941 44.982 72.941 43.520 L 72.941 42.059 65.147 42.059 L 57.353 42.059 57.353 66.471 L 57.353 90.882 65.147 90.882 L 72.941 90.882 72.941 75.053 C 72.941 61.721,73.012 58.986,73.390 57.713 C 75.035 52.175,81.895 49.723,82.955 54.294 C 83.101 54.925,83.224 63.415,83.228 73.162 L 83.235 90.882 91.029 90.882 L 98.824 90.882 98.824 74.108 C 98.824 60.542,98.901 57.149,99.228 56.366 C 100.548 53.207,104.497 51.033,106.774 52.211 C 108.575 53.142,108.529 52.610,108.529 72.632 L 108.529 90.882 116.324 90.882 L 124.118 90.882 124.118 72.415 C 124.118 50.089,124.045 49.647,119.669 45.261 C 114.242 39.821,102.373 39.995,96.906 45.594 L 95.772 46.756 94.267 45.214 C 91.052 41.921,85.933 40.486,80.588 41.380 M146.760 41.459 C 136.758 42.731,131.178 46.847,128.269 55.097 C 126.807 59.242,126.004 58.845,135.662 58.755 L 143.971 58.676 144.060 57.941 C 145.078 49.589,156.176 49.013,156.176 57.313 L 156.176 59.057 153.603 59.515 C 152.188 59.768,149.441 60.123,147.500 60.304 C 135.349 61.441,130.339 64.512,128.064 72.218 C 123.818 86.598,139.895 96.576,155.666 89.350 C 156.759 88.849,157.690 88.492,157.733 88.558 C 157.776 88.623,158.037 89.173,158.313 89.779 L 158.814 90.882 167.020 90.882 L 175.226 90.882 174.535 89.173 C 172.692 84.610,172.403 81.972,172.090 66.912 C 171.781 52.058,171.535 51.005,167.441 47.003 C 163.132 42.791,154.493 40.476,146.760 41.459 M305.294 41.371 C 297.418 42.140,290.290 45.968,287.707 50.814 C 286.773 52.568,285.000 57.503,285.000 58.352 C 285.000 58.774,285.889 58.824,293.382 58.824 L 301.765 58.824 301.765 58.142 C 301.765 55.299,303.808 52.429,306.274 51.808 C 310.818 50.664,313.824 52.855,313.824 57.313 L 313.824 59.057 311.250 59.515 C 309.835 59.768,307.088 60.123,305.147 60.304 C 292.921 61.448,287.668 64.718,285.697 72.413 C 281.980 86.922,297.675 96.564,313.293 89.365 C 314.398 88.856,315.337 88.492,315.380 88.558 C 315.423 88.623,315.684 89.173,315.960 89.779 L 316.461 90.882 324.681 90.882 L 332.900 90.882 332.178 89.105 C 330.319 84.531,329.769 78.460,329.714 61.912 C 329.686 53.337,328.949 50.943,325.179 47.175 C 320.874 42.872,313.114 40.607,305.294 41.371 M330.299 42.128 C 330.301 42.333,334.053 53.353,338.636 66.618 L 346.970 90.735 354.592 90.814 L 362.214 90.892 370.821 66.990 C 375.556 53.844,379.507 42.790,379.602 42.426 L 379.774 41.765 371.223 41.765 L 362.672 41.765 362.090 43.750 C 361.770 44.842,360.104 50.632,358.387 56.618 C 356.671 62.603,355.194 67.699,355.106 67.941 C 355.017 68.184,353.190 62.426,351.046 55.147 L 347.146 41.912 338.720 41.834 C 332.078 41.772,330.295 41.834,330.299 42.128 M178.824 66.471 L 178.824 90.882 186.765 90.882 L 194.706 90.882 194.706 66.471 L 194.706 42.059 186.765 42.059 L 178.824 42.059 178.824 66.471 M382.353 66.471 L 382.353 90.882 390.294 90.882 L 398.235 90.882 398.235 66.471 L 398.235 42.059 390.294 42.059 L 382.353 42.059 382.353 66.471 M156.471 73.949 L 156.471 78.487 154.191 79.364 C 147.935 81.771,144.122 80.554,144.119 76.149 C 144.116 73.087,146.064 71.191,149.847 70.575 C 150.983 70.390,152.772 70.071,153.824 69.865 C 154.875 69.659,155.901 69.473,156.103 69.451 C 156.383 69.421,156.471 70.494,156.471 73.949 M314.118 73.939 L 314.118 78.467 312.132 79.263 C 305.554 81.901,301.426 80.450,301.873 75.656 C 302.154 72.645,303.841 71.160,307.675 70.550 C 308.873 70.359,310.647 70.042,311.618 69.845 C 312.588 69.649,313.548 69.471,313.750 69.450 C 314.030 69.421,314.118 70.493,314.118 73.939 " stroke="none" fill="#000000" fill-rule="evenodd"></path></g></svg>