<svg id="svg" version="1.1" xmlns="http://www.w3.org/2000/svg" xmlns:xlink="http://www.w3.org/1999/xlink" width="400" height="77.94117647058825" viewBox="0, 0, 400,77.94117647058825"><g id="svgg"><path id="path0" d="M8.902 6.163 C 6.234 7.124,3.832 9.336,3.238 11.379 C 3.008 12.172,2.938 20.168,3.001 38.676 L 3.088 64.853 3.808 66.316 C 4.726 68.182,6.524 69.980,8.390 70.898 L 9.853 71.618 31.838 71.700 L 53.824 71.783 53.824 66.480 L 53.824 61.176 36.771 61.176 L 19.719 61.176 19.267 60.486 C 18.881 59.897,18.826 58.557,18.892 51.442 L 18.971 43.088 34.485 43.012 L 50.000 42.936 50.000 37.792 L 50.000 32.647 34.412 32.647 L 18.824 32.647 18.824 24.765 C 18.824 19.026,18.920 16.786,19.176 16.529 C 19.443 16.263,23.601 16.176,36.088 16.176 L 52.647 16.176 52.647 10.882 L 52.647 5.588 31.544 5.599 C 11.634 5.609,10.354 5.641,8.902 6.163 M178.824 12.941 L 178.824 20.294 186.765 20.294 L 194.706 20.294 194.706 12.941 L 194.706 5.588 186.765 5.588 L 178.824 5.588 178.824 12.941 M203.824 38.676 L 203.824 71.765 211.765 71.765 L 219.706 71.765 219.706 38.676 L 219.706 5.588 211.765 5.588 L 203.824 5.588 203.824 38.676 M226.471 38.676 L 226.471 71.765 234.116 71.765 L 241.761 71.765 241.836 51.854 L 241.912 31.943 253.813 51.854 L 265.714 71.765 273.739 71.765 L 281.765 71.765 281.765 38.676 L 281.765 5.588 274.265 5.588 L 266.765 5.588 266.765 25.311 C 266.765 36.449,266.653 44.966,266.508 44.876 C 266.367 44.789,260.991 35.914,254.561 25.153 L 242.871 5.588 234.671 5.588 L 226.471 5.588 226.471 38.676 M382.353 12.941 L 382.353 20.294 390.294 20.294 L 398.235 20.294 398.235 12.941 L 398.235 5.588 390.294 5.588 L 382.353 5.588 382.353 12.941 M79.559 22.478 C 77.486 22.998,76.021 23.669,74.370 24.855 L 72.941 25.881 72.941 24.411 L 72.941 22.941 65.147 22.941 L 57.353 22.941 57.353 47.353 L 57.353 71.765 65.147 71.765 L 72.941 71.765 72.941 55.936 C 72.941 42.604,73.012 39.868,73.390 38.596 C 75.035 33.058,81.895 30.605,82.955 35.176 C 83.101 35.807,83.224 44.298,83.228 54.044 L 83.235 71.765 91.029 71.765 L 98.824 71.765 98.824 54.991 C 98.824 41.424,98.901 38.031,99.228 37.249 C 100.548 34.090,104.497 31.915,106.774 33.093 C 108.575 34.024,108.529 33.492,108.529 53.515 L 108.529 71.765 116.324 71.765 L 124.118 71.765 124.118 53.297 C 124.118 30.965,124.059 30.609,119.661 26.109 C 114.377 20.702,102.360 20.891,96.915 26.467 L 95.791 27.619 94.280 26.089 C 90.797 22.562,84.946 21.127,79.559 22.478 M146.720 22.344 C 136.729 23.613,131.184 27.711,128.269 35.979 C 126.807 40.125,126.004 39.728,135.662 39.637 L 143.971 39.559 144.060 38.824 C 145.077 30.477,156.176 29.895,156.176 38.188 L 156.176 39.923 154.485 40.248 C 153.555 40.426,151.537 40.714,150.000 40.887 C 137.912 42.252,135.426 43.039,131.707 46.682 C 126.959 51.333,126.110 59.905,129.825 65.711 C 134.208 72.563,145.273 74.595,155.236 70.379 C 156.580 69.810,157.709 69.393,157.745 69.452 C 157.782 69.511,158.037 70.055,158.313 70.662 L 158.814 71.765 167.023 71.765 L 175.231 71.765 174.378 69.568 C 172.592 64.969,172.425 63.327,172.076 46.912 C 171.781 33.054,171.484 31.837,167.441 27.885 C 163.111 23.654,154.514 21.355,146.720 22.344 M304.407 22.341 C 296.885 23.300,290.181 27.056,287.707 31.697 C 286.770 33.455,285.000 38.386,285.000 39.239 C 285.000 40.063,301.571 39.797,301.706 38.971 C 302.293 35.368,303.631 33.479,306.103 32.760 C 310.595 31.454,313.824 33.709,313.824 38.151 L 313.824 39.939 311.250 40.398 C 309.835 40.650,307.088 41.005,305.147 41.187 C 292.921 42.331,287.668 45.601,285.697 53.295 C 281.980 67.805,297.675 77.446,313.293 70.247 C 314.398 69.738,315.337 69.375,315.380 69.440 C 315.423 69.505,315.684 70.055,315.960 70.662 L 316.461 71.765 324.670 71.765 L 332.878 71.765 332.052 69.632 C 330.298 65.102,329.785 59.236,329.719 42.941 C 329.683 34.199,328.964 31.840,325.179 28.057 C 320.768 23.649,312.340 21.329,304.407 22.341 M330.299 23.010 C 330.301 23.215,334.053 34.235,338.636 47.500 L 346.970 71.618 354.593 71.696 L 362.217 71.774 370.969 47.431 C 375.783 34.043,379.718 22.989,379.714 22.868 C 379.709 22.746,375.874 22.647,371.190 22.647 L 362.675 22.647 362.129 24.485 C 361.829 25.496,360.135 31.384,358.365 37.570 C 356.595 43.756,355.069 48.818,354.974 48.820 C 354.879 48.822,353.079 42.967,350.973 35.809 L 347.145 22.794 338.720 22.716 C 332.078 22.655,330.295 22.717,330.299 23.010 M178.824 47.353 L 178.824 71.765 186.765 71.765 L 194.706 71.765 194.706 47.353 L 194.706 22.941 186.765 22.941 L 178.824 22.941 178.824 47.353 M382.353 47.353 L 382.353 71.765 390.294 71.765 L 398.235 71.765 398.235 47.353 L 398.235 22.941 390.294 22.941 L 382.353 22.941 382.353 47.353 M156.471 54.832 L 156.471 59.369 154.151 60.263 C 148.011 62.631,144.122 61.379,144.119 57.032 C 144.116 53.969,146.064 52.074,149.847 51.458 C 150.983 51.273,152.772 50.953,153.824 50.747 C 154.875 50.541,155.901 50.355,156.103 50.333 C 156.383 50.303,156.471 51.377,156.471 54.832 M314.118 54.822 L 314.118 59.349 312.132 60.145 C 305.572 62.776,301.420 61.317,301.871 56.539 C 302.156 53.525,303.842 52.042,307.675 51.432 C 308.873 51.241,310.647 50.925,311.618 50.728 C 312.588 50.531,313.548 50.353,313.750 50.332 C 314.030 50.303,314.118 51.375,314.118 54.822 " stroke="none" fill="#000000" fill-rule="evenodd"></path></g></svg>