<svg id="svg" xmlns="http://www.w3.org/2000/svg" xmlns:xlink="http://www.w3.org/1999/xlink" width="400" height="115.29411764705883" viewBox="0, 0, 400,115.29411764705883"><g id="svgg"><path id="path0" d="M8.902 25.281 C 6.389 26.185,4.217 28.105,3.346 30.190 C 2.725 31.674,2.749 82.616,3.370 84.378 C 4.002 86.169,5.435 88.102,6.855 89.078 C 9.512 90.907,9.163 90.882,32.553 90.882 L 53.824 90.882 53.824 85.588 L 53.824 80.294 36.771 80.294 L 19.719 80.294 19.267 79.603 C 18.881 79.015,18.826 77.674,18.892 70.559 L 18.971 62.206 34.485 62.130 L 50.000 62.054 50.000 56.909 L 50.000 51.765 34.412 51.765 L 18.824 51.765 18.824 43.882 C 18.824 38.144,18.920 35.904,19.176 35.647 C 19.443 35.381,23.601 35.294,36.088 35.294 L 52.647 35.294 52.647 30.000 L 52.647 24.706 31.544 24.716 C 11.634 24.727,10.354 24.758,8.902 25.281 M178.824 32.059 L 178.824 39.412 186.765 39.412 L 194.706 39.412 194.706 32.059 L 194.706 24.706 186.765 24.706 L 178.824 24.706 178.824 32.059 M203.824 57.794 L 203.824 90.882 211.765 90.882 L 219.706 90.882 219.706 57.794 L 219.706 24.706 211.765 24.706 L 203.824 24.706 203.824 57.794 M226.471 57.794 L 226.471 90.882 234.116 90.882 L 241.761 90.882 241.836 70.969 L 241.912 51.055 253.813 70.969 L 265.715 90.882 273.740 90.882 L 281.765 90.882 281.765 57.794 L 281.765 24.706 274.265 24.706 L 266.765 24.706 266.765 44.429 C 266.765 55.646,266.654 64.084,266.507 63.993 C 266.365 63.905,260.988 55.030,254.559 44.270 L 242.868 24.706 234.669 24.706 L 226.471 24.706 226.471 57.794 M382.353 32.059 L 382.353 39.412 390.294 39.412 L 398.235 39.412 398.235 32.059 L 398.235 24.706 390.294 24.706 L 382.353 24.706 382.353 32.059 M79.559 41.595 C 77.486 42.115,76.021 42.786,74.370 43.973 L 72.941 44.999 72.941 43.529 L 72.941 42.059 65.147 42.059 L 57.353 42.059 57.353 66.471 L 57.353 90.882 65.147 90.882 L 72.941 90.882 72.941 74.864 C 72.941 59.620,72.969 58.770,73.523 57.290 C 75.541 51.902,81.930 49.872,82.955 54.294 C 83.101 54.925,83.224 63.415,83.228 73.162 L 83.235 90.882 91.029 90.882 L 98.824 90.882 98.824 74.063 C 98.824 55.095,98.729 55.923,101.148 53.737 C 103.666 51.462,106.534 51.235,107.858 53.205 L 108.529 54.205 108.529 72.543 L 108.529 90.882 116.324 90.882 L 124.118 90.882 124.118 72.415 C 124.118 50.083,124.059 49.727,119.661 45.226 C 114.377 39.820,102.360 40.009,96.915 45.584 L 95.791 46.736 94.280 45.206 C 90.797 41.680,84.946 40.244,79.559 41.595 M146.720 41.463 C 136.735 42.727,131.184 46.828,128.269 55.097 C 126.807 59.242,126.004 58.845,135.662 58.755 L 143.971 58.676 144.060 57.941 C 145.081 49.565,156.176 49.018,156.176 57.343 C 156.176 58.319,156.110 59.118,156.030 59.118 C 155.949 59.118,154.724 59.312,153.309 59.549 C 151.893 59.786,148.738 60.183,146.297 60.431 C 134.007 61.680,128.555 65.999,127.508 75.313 C 126.056 88.236,141.795 96.045,155.692 89.296 L 157.665 88.338 158.228 89.610 L 158.790 90.882 167.011 90.882 L 175.231 90.882 174.378 88.686 C 172.592 84.086,172.425 82.444,172.076 66.029 C 171.781 52.172,171.484 50.955,167.441 47.003 C 163.123 42.782,154.503 40.478,146.720 41.463 M304.407 41.458 C 296.885 42.417,290.181 46.174,287.707 50.814 C 286.770 52.572,285.000 57.504,285.000 58.357 C 285.000 59.181,301.571 58.914,301.706 58.088 C 302.280 54.570,303.634 52.607,305.963 51.915 C 310.578 50.544,313.824 52.732,313.824 57.214 L 313.824 59.041 312.132 59.365 C 311.202 59.544,309.184 59.832,307.647 60.005 C 295.559 61.370,293.073 62.157,289.354 65.799 C 283.865 71.176,283.813 81.499,289.248 86.934 C 294.533 92.218,304.888 93.217,313.436 89.268 C 315.089 88.504,315.588 88.375,315.588 88.710 C 315.588 88.950,315.790 89.537,316.037 90.015 L 316.486 90.882 324.682 90.882 L 332.878 90.882 332.052 88.750 C 330.298 84.220,329.785 78.354,329.719 62.059 C 329.683 53.317,328.964 50.958,325.179 47.175 C 320.773 42.771,312.331 40.448,304.407 41.458 M330.300 42.128 C 330.304 42.333,334.057 53.353,338.640 66.618 L 346.973 90.735 354.592 90.814 L 362.210 90.892 370.967 66.549 C 375.783 53.160,379.719 42.107,379.715 41.985 C 379.710 41.864,375.874 41.765,371.190 41.765 L 362.675 41.765 362.131 43.603 C 361.832 44.614,360.138 50.502,358.367 56.688 C 356.596 62.874,355.069 67.936,354.974 67.938 C 354.879 67.940,353.079 62.085,350.973 54.926 L 347.145 41.912 338.720 41.834 C 332.077 41.772,330.295 41.834,330.300 42.128 M178.824 66.471 L 178.824 90.882 186.765 90.882 L 194.706 90.882 194.706 66.471 L 194.706 42.059 186.765 42.059 L 178.824 42.059 178.824 66.471 M382.353 66.471 L 382.353 90.882 390.294 90.882 L 398.235 90.882 398.235 66.471 L 398.235 42.059 390.294 42.059 L 382.353 42.059 382.353 66.471 M156.471 73.945 L 156.471 78.478 154.044 79.423 C 148.179 81.707,144.108 80.374,144.125 76.176 C 144.140 72.566,146.040 71.014,151.324 70.294 C 152.618 70.118,154.140 69.861,154.706 69.723 C 155.272 69.585,155.901 69.458,156.103 69.442 C 156.382 69.419,156.471 70.498,156.471 73.945 M314.118 73.949 L 314.118 78.487 311.691 79.434 C 305.832 81.720,301.765 80.335,301.765 76.053 C 301.765 73.121,303.780 71.197,307.500 70.575 C 308.632 70.386,310.419 70.061,311.471 69.852 C 312.522 69.644,313.548 69.459,313.750 69.442 C 314.030 69.419,314.118 70.499,314.118 73.949 " stroke="none" fill="#000000" fill-rule="evenodd"></path></g></svg>