<svg id="svg" xmlns="http://www.w3.org/2000/svg" xmlns:xlink="http://www.w3.org/1999/xlink" width="400" height="126.27235213204952" viewBox="0, 0, 400,126.27235213204952"><g id="svgg"><path id="path0" d="M24.271 31.942 C 21.370 32.427,18.758 34.362,17.628 36.864 C 16.850 38.586,16.731 84.637,17.498 87.219 C 18.306 89.941,19.942 91.768,22.711 93.045 L 24.072 93.673 44.429 93.673 L 64.787 93.673 64.862 88.790 L 64.937 83.906 48.994 83.906 C 34.868 83.906,33.002 83.857,32.619 83.474 C 32.246 83.101,32.187 81.939,32.187 74.946 L 32.187 66.850 46.768 66.850 L 61.348 66.850 61.348 62.036 L 61.348 57.221 46.768 57.221 L 32.187 57.221 32.187 49.711 C 32.187 44.237,32.277 42.111,32.517 41.871 C 32.766 41.622,36.657 41.541,48.342 41.541 L 63.837 41.541 63.762 36.657 L 63.686 31.774 44.704 31.737 C 34.264 31.716,25.069 31.808,24.271 31.942 M181.568 38.652 L 181.568 45.667 188.996 45.667 L 196.424 45.667 196.424 38.652 L 196.424 31.637 188.996 31.637 L 181.568 31.637 181.568 38.652 M204.952 62.724 L 204.952 93.810 212.380 93.810 L 219.807 93.810 219.807 62.724 L 219.807 31.637 212.380 31.637 L 204.952 31.637 204.952 62.724 M226.135 62.728 L 226.135 93.819 233.219 93.746 L 240.303 93.673 240.440 75.082 L 240.578 56.491 251.530 74.838 C 257.554 84.929,262.624 93.325,262.796 93.497 C 263.014 93.715,265.341 93.810,270.481 93.810 L 277.854 93.810 277.854 62.724 L 277.854 31.637 270.703 31.637 L 263.553 31.637 263.482 50.124 L 263.411 68.612 252.407 50.132 L 241.403 31.652 233.769 31.645 L 226.135 31.637 226.135 62.728 M371.939 38.652 L 371.939 45.667 379.367 45.667 L 386.795 45.667 386.795 38.652 L 386.795 31.637 379.367 31.637 L 371.939 31.637 371.939 38.652 M90.344 47.317 C 87.770 47.694,85.037 48.834,83.395 50.216 L 82.531 50.943 82.531 49.405 L 82.531 47.868 75.378 47.868 L 68.226 47.868 68.226 70.839 L 68.226 93.810 75.378 93.810 L 82.531 93.810 82.531 79.005 C 82.531 62.635,82.548 62.451,84.266 60.198 C 86.081 57.819,89.063 56.576,90.767 57.488 C 92.145 58.225,92.160 58.423,92.160 76.745 L 92.160 93.810 99.450 93.810 L 106.740 93.810 106.740 78.120 C 106.740 60.754,106.665 61.523,108.570 59.410 C 110.622 57.134,113.411 56.539,114.873 58.065 L 115.681 58.908 115.818 76.290 L 115.956 93.673 123.246 93.673 L 130.536 93.673 130.536 76.479 C 130.536 55.649,130.534 55.632,126.498 51.303 C 121.579 46.027,111.572 45.875,105.302 50.983 L 103.730 52.263 102.440 50.884 C 99.701 47.956,95.146 46.613,90.344 47.317 M150.055 47.702 C 142.804 49.086,138.060 52.094,135.694 56.809 C 134.945 58.300,133.425 62.641,133.425 63.288 C 133.425 63.446,136.493 63.549,141.228 63.549 L 149.031 63.549 149.201 62.310 C 150.168 55.257,159.989 54.793,160.342 61.783 L 160.443 63.782 159.393 64.072 C 158.816 64.231,156.668 64.555,154.619 64.790 C 140.420 66.425,136.786 68.346,134.389 75.487 C 129.735 89.352,145.494 99.538,160.151 92.139 C 161.067 91.676,161.844 91.337,161.877 91.385 C 161.911 91.433,162.120 91.967,162.342 92.572 L 162.746 93.673 170.402 93.746 L 178.058 93.819 177.912 93.196 C 177.832 92.853,177.444 91.681,177.049 90.592 C 175.846 87.269,175.565 84.293,175.379 72.860 C 175.137 58.038,174.790 56.450,170.962 52.678 C 166.708 48.486,157.469 46.287,150.055 47.702 M297.211 47.724 C 288.456 49.313,283.792 53.298,281.344 61.283 L 280.647 63.557 288.528 63.484 L 296.409 63.411 296.614 62.210 C 297.822 55.127,307.397 54.878,307.795 61.918 L 307.900 63.787 306.839 64.062 C 305.598 64.383,302.458 64.831,299.725 65.076 C 287.087 66.211,281.795 70.236,281.003 79.315 C 279.927 91.656,294.741 98.639,307.897 91.991 L 309.192 91.337 309.739 92.574 L 310.285 93.810 317.866 93.810 C 322.036 93.810,325.447 93.738,325.447 93.651 C 325.447 93.563,325.072 92.429,324.614 91.132 C 323.188 87.090,322.989 85.096,322.717 72.077 C 322.409 57.411,322.323 56.995,318.814 53.243 C 314.324 48.444,305.569 46.207,297.211 47.724 M181.635 70.770 L 181.706 93.673 189.065 93.746 L 196.424 93.819 196.424 70.844 L 196.424 47.868 188.994 47.868 L 181.565 47.868 181.635 70.770 M325.196 54.264 C 326.407 57.782,329.961 68.088,333.094 77.166 L 338.790 93.673 345.904 93.673 L 353.018 93.673 361.235 70.839 C 365.755 58.281,369.455 47.975,369.458 47.937 C 369.461 47.899,365.843 47.869,361.417 47.870 L 353.370 47.872 349.959 59.768 C 346.292 72.554,346.234 72.732,345.985 71.916 C 345.896 71.626,344.513 66.933,342.910 61.486 C 341.308 56.039,339.751 50.746,339.450 49.725 L 338.904 47.868 330.948 47.868 L 322.993 47.868 325.196 54.264 M371.939 70.839 L 371.939 93.810 379.367 93.810 L 386.795 93.810 386.795 70.839 L 386.795 47.868 379.367 47.868 L 371.939 47.868 371.939 70.839 M160.660 77.847 L 160.660 81.967 159.904 82.349 C 154.096 85.284,149.106 84.201,149.106 80.006 C 149.106 76.634,150.670 75.361,155.971 74.415 C 161.262 73.471,160.660 73.030,160.660 77.847 M307.840 77.966 L 307.840 82.204 305.433 83.082 C 299.948 85.082,296.561 83.909,296.561 80.009 C 296.561 76.225,299.855 74.319,307.359 73.763 C 307.798 73.731,307.840 74.099,307.840 77.966 " stroke="none" fill="#000000" fill-rule="evenodd"></path></g></svg>