<svg id="svg" version="1.1" xmlns="http://www.w3.org/2000/svg" xmlns:xlink="http://www.w3.org/1999/xlink" width="400" height="110.75268817204301" viewBox="0, 0, 400,110.75268817204301"><g id="svgg"><path id="path0" d="M41.430 23.645 C 41.381 23.724,40.796 23.824,40.129 23.867 C 39.462 23.910,38.767 24.022,38.583 24.117 C 38.400 24.212,37.912 24.453,37.500 24.652 C 37.087 24.851,36.591 25.107,36.397 25.220 C 35.828 25.551,34.333 27.045,34.333 27.282 C 34.333 27.402,34.276 27.500,34.206 27.500 C 34.032 27.500,33.500 28.757,33.500 29.168 C 33.500 29.351,33.425 29.500,33.333 29.500 C 33.123 29.500,33.101 81.273,33.311 81.403 C 33.391 81.452,33.506 81.866,33.566 82.323 C 33.627 82.779,33.749 83.198,33.838 83.253 C 33.927 83.308,34.000 83.499,34.000 83.677 C 34.000 83.854,34.075 84.000,34.167 84.000 C 34.258 84.000,34.333 84.115,34.333 84.255 C 34.333 84.396,34.446 84.554,34.583 84.606 C 34.721 84.659,34.833 84.810,34.833 84.943 C 34.833 85.281,37.129 87.484,37.606 87.604 C 37.823 87.658,38.000 87.767,38.000 87.846 C 38.000 87.924,38.375 88.038,38.833 88.099 C 39.292 88.160,39.667 88.275,39.667 88.355 C 39.667 88.437,51.728 88.500,67.333 88.500 L 95.000 88.500 95.000 73.760 C 95.000 65.653,95.064 58.980,95.142 58.932 C 95.219 58.884,95.327 58.223,95.381 57.464 C 95.465 56.277,95.574 55.902,96.156 54.790 C 96.528 54.079,96.833 53.428,96.833 53.345 C 96.833 53.261,97.040 52.974,97.292 52.707 C 97.544 52.441,98.015 51.929,98.338 51.570 C 98.971 50.868,99.177 50.719,100.333 50.131 C 100.746 49.922,101.130 49.686,101.188 49.607 C 101.245 49.528,101.639 49.425,102.063 49.377 C 102.487 49.329,102.833 49.225,102.833 49.145 C 102.833 48.956,104.120 48.956,104.236 49.145 C 104.286 49.224,104.609 49.336,104.955 49.393 C 105.611 49.501,106.833 50.490,106.833 50.913 C 106.833 51.037,106.916 51.166,107.016 51.200 C 107.117 51.233,107.240 51.616,107.288 52.051 C 107.337 52.485,107.443 52.881,107.522 52.930 C 107.602 52.980,107.667 60.921,107.667 70.760 L 107.667 88.500 114.500 88.500 L 121.333 88.500 121.333 72.000 C 121.333 61.111,121.390 55.500,121.500 55.500 C 121.592 55.500,121.667 55.368,121.667 55.206 C 121.667 55.044,121.817 54.650,122.001 54.331 C 122.185 54.011,122.429 53.563,122.543 53.333 C 123.070 52.274,124.795 50.631,125.956 50.083 C 126.345 49.900,126.664 49.698,126.665 49.635 C 126.666 49.572,127.005 49.470,127.419 49.408 C 127.832 49.346,128.212 49.229,128.262 49.147 C 128.379 48.957,129.786 48.955,129.903 49.144 C 129.952 49.224,130.258 49.332,130.583 49.384 C 131.122 49.472,132.500 50.649,132.500 51.022 C 132.500 51.089,132.620 51.263,132.766 51.409 C 132.913 51.556,133.073 51.974,133.122 52.338 C 133.171 52.702,133.276 53.000,133.355 53.000 C 133.436 53.000,133.500 60.822,133.500 70.750 L 133.500 88.500 140.333 88.500 L 147.167 88.500 147.167 84.083 C 147.167 81.250,147.226 79.667,147.333 79.667 C 147.425 79.667,147.500 79.835,147.501 80.042 C 147.502 80.248,147.614 80.631,147.751 80.894 C 147.888 81.157,148.000 81.475,148.000 81.602 C 148.000 81.729,148.075 81.833,148.167 81.833 C 148.258 81.833,148.333 81.940,148.333 82.071 C 148.333 82.202,148.427 82.412,148.542 82.537 C 148.780 82.797,149.118 83.307,149.280 83.654 C 149.460 84.038,151.870 86.333,152.093 86.333 C 152.206 86.333,152.341 86.446,152.394 86.583 C 152.446 86.721,152.642 86.833,152.828 86.833 C 153.014 86.833,153.167 86.908,153.167 87.000 C 153.167 87.092,153.279 87.167,153.417 87.167 C 153.554 87.167,153.667 87.236,153.667 87.320 C 153.667 87.404,153.892 87.523,154.167 87.583 C 154.442 87.644,154.667 87.756,154.667 87.832 C 154.667 87.908,154.967 88.021,155.333 88.083 C 155.700 88.145,156.000 88.264,156.000 88.348 C 156.000 88.432,156.188 88.500,156.417 88.500 C 156.646 88.500,156.833 88.570,156.833 88.655 C 156.833 88.740,157.265 88.857,157.792 88.916 C 158.319 88.974,158.930 89.111,159.150 89.219 C 159.695 89.488,167.183 89.496,167.516 89.229 C 167.645 89.125,168.256 88.988,168.875 88.924 C 169.494 88.859,170.000 88.738,170.000 88.653 C 170.000 88.569,170.225 88.500,170.500 88.500 C 170.775 88.500,171.000 88.434,171.000 88.352 C 171.000 88.271,171.338 88.154,171.750 88.092 C 172.162 88.030,172.500 87.909,172.500 87.823 C 172.500 87.737,172.612 87.667,172.749 87.667 C 173.080 87.667,174.333 87.119,174.333 86.974 C 174.333 86.911,174.558 86.810,174.833 86.750 C 175.108 86.690,175.333 86.579,175.333 86.505 C 175.333 86.430,175.521 86.322,175.750 86.265 C 175.979 86.207,176.167 86.087,176.167 85.997 C 176.167 85.907,176.273 85.833,176.403 85.833 C 176.533 85.833,176.670 85.740,176.708 85.626 C 176.847 85.209,177.276 85.913,177.390 86.745 C 177.452 87.199,177.596 87.780,177.709 88.035 L 177.915 88.500 191.957 88.500 L 206.000 88.500 206.000 64.833 L 206.000 41.167 198.917 41.167 L 191.833 41.167 191.833 63.667 C 191.833 76.042,191.773 86.167,191.698 86.167 C 191.624 86.167,191.472 85.698,191.361 85.125 C 191.249 84.552,191.113 83.858,191.058 83.583 C 191.003 83.308,190.897 83.006,190.823 82.912 C 190.748 82.818,190.634 81.955,190.569 80.995 C 190.504 80.035,190.393 79.212,190.321 79.165 C 190.250 79.118,190.103 74.430,189.994 68.748 C 189.735 55.218,189.677 53.333,189.516 53.333 C 189.441 53.333,189.332 52.868,189.273 52.299 C 189.213 51.730,189.090 51.190,188.999 51.099 C 188.908 51.008,188.833 50.798,188.833 50.633 C 188.833 50.468,188.764 50.333,188.680 50.333 C 188.596 50.333,188.477 50.108,188.417 49.833 C 188.356 49.558,188.246 49.333,188.171 49.333 C 188.097 49.333,187.989 49.146,187.932 48.917 C 187.874 48.688,187.753 48.500,187.663 48.500 C 187.574 48.500,187.500 48.387,187.500 48.250 C 187.500 48.112,187.430 48.000,187.345 48.000 C 187.259 48.000,187.136 47.831,187.071 47.625 C 186.953 47.250,184.408 44.667,184.157 44.667 C 184.084 44.667,183.922 44.573,183.797 44.458 C 183.465 44.154,182.959 43.838,182.625 43.726 C 182.465 43.672,182.333 43.567,182.333 43.494 C 182.333 43.420,182.108 43.310,181.833 43.250 C 181.558 43.190,181.333 43.089,181.333 43.026 C 181.333 42.881,180.080 42.333,179.749 42.333 C 179.612 42.333,179.500 42.263,179.500 42.177 C 179.500 42.091,179.162 41.970,178.750 41.908 C 178.338 41.846,178.000 41.729,178.000 41.648 C 178.000 41.566,177.808 41.500,177.572 41.500 C 177.337 41.500,177.003 41.424,176.830 41.332 C 176.657 41.239,176.043 41.116,175.466 41.059 C 174.889 41.001,174.311 40.871,174.183 40.769 C 173.891 40.537,164.576 40.509,164.083 40.738 C 163.900 40.823,163.225 40.988,162.583 41.104 C 160.624 41.457,160.333 41.532,160.333 41.686 C 160.333 41.767,160.127 41.834,159.875 41.834 C 159.623 41.835,159.215 41.940,158.970 42.069 C 158.724 42.197,158.293 42.352,158.013 42.414 C 157.733 42.475,157.461 42.595,157.409 42.679 C 157.356 42.764,157.168 42.833,156.990 42.833 C 156.812 42.833,156.667 42.899,156.667 42.979 C 156.667 43.059,156.460 43.167,156.208 43.218 C 155.956 43.269,155.594 43.456,155.404 43.635 C 155.213 43.813,154.882 44.015,154.667 44.083 C 154.251 44.215,154.103 44.319,153.296 45.042 C 153.014 45.294,152.714 45.500,152.629 45.500 C 152.394 45.500,150.171 47.721,150.169 47.958 C 150.168 48.073,150.093 48.167,150.003 48.167 C 149.913 48.167,149.793 48.354,149.735 48.583 C 149.678 48.813,149.564 49.000,149.482 49.000 C 149.400 49.000,149.333 49.112,149.333 49.250 C 149.333 49.387,149.260 49.500,149.170 49.500 C 149.080 49.500,148.956 49.701,148.894 49.947 C 148.832 50.193,148.681 50.587,148.559 50.822 C 148.436 51.058,148.335 51.344,148.334 51.458 C 148.334 51.573,148.258 51.667,148.167 51.667 C 148.075 51.667,148.000 51.854,148.000 52.083 C 148.000 52.313,147.932 52.500,147.848 52.500 C 147.764 52.500,147.645 52.800,147.583 53.166 C 147.418 54.144,147.167 54.150,147.167 53.177 C 147.167 52.713,147.102 52.333,147.024 52.333 C 146.945 52.333,146.831 51.793,146.770 51.132 C 146.708 50.471,146.596 49.890,146.520 49.840 C 146.444 49.791,146.330 49.469,146.266 49.125 C 146.203 48.781,146.080 48.500,145.992 48.500 C 145.905 48.500,145.833 48.387,145.833 48.250 C 145.833 48.112,145.767 48.000,145.685 48.000 C 145.604 48.000,145.488 47.737,145.428 47.417 C 145.367 47.096,145.247 46.833,145.159 46.833 C 145.072 46.833,145.000 46.750,145.000 46.649 C 145.000 45.869,140.693 41.833,139.860 41.833 C 139.754 41.833,139.667 41.758,139.667 41.667 C 139.667 41.575,139.479 41.500,139.250 41.500 C 139.021 41.500,138.833 41.430,138.833 41.344 C 138.833 41.257,138.477 41.136,138.042 41.073 C 137.606 41.010,137.145 40.874,137.016 40.771 C 136.666 40.490,128.802 40.510,128.708 40.792 C 128.670 40.906,128.423 41.000,128.159 41.000 C 127.659 41.000,126.462 41.350,125.558 41.761 C 125.269 41.893,124.951 42.000,124.850 42.000 C 124.749 42.000,124.667 42.075,124.667 42.167 C 124.667 42.258,124.547 42.333,124.401 42.333 C 124.111 42.333,123.224 42.791,122.866 43.125 C 122.743 43.240,122.588 43.333,122.520 43.333 C 122.362 43.333,119.480 46.186,119.218 46.601 C 119.037 46.888,119.019 46.891,119.010 46.625 C 119.004 46.465,118.925 46.333,118.833 46.333 C 118.742 46.333,118.667 46.221,118.667 46.083 C 118.667 45.946,118.592 45.833,118.500 45.833 C 118.408 45.833,118.333 45.737,118.333 45.620 C 118.333 44.978,115.017 41.833,114.340 41.833 C 114.245 41.833,114.167 41.758,114.167 41.667 C 114.167 41.575,114.017 41.500,113.833 41.500 C 113.650 41.500,113.500 41.432,113.500 41.348 C 113.500 41.264,113.181 41.143,112.792 41.078 C 112.402 41.012,112.038 40.888,111.982 40.800 C 111.927 40.713,111.006 40.598,109.935 40.546 C 108.865 40.493,107.949 40.386,107.901 40.308 C 107.787 40.123,107.167 40.124,107.167 40.309 C 107.167 40.387,106.228 40.492,105.080 40.542 C 103.932 40.591,102.901 40.705,102.788 40.794 C 102.675 40.883,102.312 41.005,101.980 41.065 C 101.647 41.125,101.010 41.359,100.563 41.586 C 100.116 41.813,99.656 41.999,99.542 41.999 C 99.427 42.000,99.333 42.075,99.333 42.167 C 99.333 42.258,99.233 42.333,99.111 42.333 C 98.989 42.333,98.688 42.558,98.443 42.833 C 98.198 43.108,97.916 43.333,97.817 43.333 C 97.557 43.333,96.167 44.803,96.167 45.078 C 96.167 45.206,96.017 45.358,95.834 45.417 C 95.651 45.475,95.455 45.705,95.399 45.928 C 95.147 46.933,95.000 46.131,95.000 43.750 L 95.000 41.167 88.333 41.167 L 81.667 41.167 81.667 60.667 L 81.667 80.167 65.881 80.167 C 51.354 80.167,50.035 80.144,49.344 79.880 C 48.595 79.594,48.000 79.137,48.000 78.847 C 48.000 78.763,47.906 78.663,47.792 78.625 C 47.629 78.571,47.573 76.467,47.535 69.028 L 47.487 59.500 63.327 59.500 L 79.167 59.500 79.167 55.333 L 79.167 51.167 63.328 51.167 L 47.489 51.167 47.536 42.267 L 47.583 33.366 48.159 32.864 C 48.989 32.140,48.314 32.167,65.507 32.167 C 74.197 32.167,81.425 32.121,81.570 32.066 C 81.945 31.921,81.969 24.112,81.595 23.738 C 81.321 23.464,41.599 23.371,41.430 23.645 M191.833 30.083 L 191.833 36.667 198.917 36.667 L 206.000 36.667 206.000 30.083 L 206.000 23.500 198.917 23.500 L 191.833 23.500 191.833 30.083 M207.867 23.700 C 207.712 23.854,207.667 31.300,207.667 56.200 L 207.667 88.500 214.750 88.500 L 221.833 88.500 221.833 56.000 L 221.833 23.500 214.950 23.500 C 209.819 23.500,208.016 23.551,207.867 23.700 M223.833 23.667 C 223.833 23.775,226.444 23.833,231.333 23.833 C 236.222 23.833,238.833 23.775,238.833 23.667 C 238.833 23.558,236.222 23.500,231.333 23.500 C 226.444 23.500,223.833 23.558,223.833 23.667 M264.444 23.611 C 264.383 23.672,264.329 33.328,264.323 45.069 C 264.313 64.850,264.292 66.377,264.042 65.875 C 263.782 65.352,263.500 65.157,263.500 65.500 C 263.500 65.592,263.575 65.667,263.667 65.667 C 263.758 65.667,263.833 65.770,263.833 65.896 C 263.833 66.023,263.946 66.219,264.083 66.333 C 264.221 66.447,264.333 66.682,264.333 66.854 C 264.333 67.026,264.408 67.167,264.500 67.167 C 264.610 67.167,264.667 59.831,264.667 45.494 L 264.667 23.822 271.250 23.869 C 276.431 23.907,277.833 23.872,277.833 23.708 C 277.833 23.483,264.668 23.387,264.444 23.611 M364.278 23.611 C 364.139 23.750,364.129 36.042,364.268 36.403 C 364.358 36.638,365.138 36.667,371.351 36.667 L 378.333 36.667 378.333 30.083 L 378.333 23.500 371.361 23.500 C 367.526 23.500,364.339 23.550,364.278 23.611 M238.833 24.146 C 238.833 24.249,238.900 24.333,238.982 24.333 C 239.064 24.333,239.178 24.521,239.235 24.750 C 239.336 25.151,239.667 25.343,239.667 25.000 C 239.667 24.908,239.592 24.833,239.500 24.833 C 239.408 24.833,239.333 24.730,239.333 24.604 C 239.333 24.477,239.221 24.281,239.083 24.167 C 238.911 24.023,238.833 24.017,238.833 24.146 M239.667 25.423 C 239.667 25.614,240.234 26.500,240.356 26.500 C 240.504 26.500,240.035 25.541,239.823 25.410 C 239.737 25.357,239.667 25.363,239.667 25.423 M240.583 27.000 C 240.709 27.397,241.053 27.833,241.240 27.833 C 241.361 27.833,240.994 27.180,240.686 26.848 C 240.487 26.632,240.473 26.653,240.583 27.000 M241.292 28.277 C 241.406 28.323,241.500 28.435,241.500 28.526 C 241.500 28.616,241.612 28.803,241.750 28.940 C 241.887 29.078,242.000 29.127,242.000 29.049 C 242.000 28.791,241.484 28.166,241.282 28.180 C 241.138 28.189,241.141 28.216,241.292 28.277 M242.006 29.458 C 242.003 29.573,242.075 29.667,242.167 29.667 C 242.258 29.667,242.333 29.770,242.333 29.896 C 242.333 30.023,242.446 30.219,242.583 30.333 C 242.973 30.657,242.876 30.303,242.422 29.750 C 242.196 29.475,242.009 29.344,242.006 29.458 M243.169 31.363 C 243.174 31.736,243.443 32.061,243.573 31.850 C 243.636 31.748,243.571 31.547,243.427 31.403 C 243.232 31.208,243.167 31.198,243.169 31.363 M243.667 32.333 C 243.667 32.425,243.734 32.500,243.815 32.500 C 243.897 32.500,244.011 32.688,244.068 32.917 C 244.126 33.146,244.253 33.333,244.350 33.333 C 244.448 33.333,244.500 33.277,244.467 33.208 C 243.967 32.182,243.667 31.854,243.667 32.333 M244.776 34.127 C 244.735 34.194,244.802 34.343,244.925 34.457 C 245.048 34.570,245.183 34.608,245.224 34.540 C 245.265 34.472,245.198 34.324,245.075 34.210 C 244.952 34.096,244.817 34.059,244.776 34.127 M245.423 35.159 C 245.567 35.646,245.970 36.085,246.128 35.927 C 246.190 35.866,246.163 35.763,246.069 35.699 C 245.975 35.636,245.763 35.396,245.600 35.167 L 245.302 34.750 245.423 35.159 M246.333 36.762 C 246.333 36.814,246.446 36.970,246.583 37.107 C 246.855 37.378,246.889 37.338,246.732 36.930 C 246.637 36.683,246.333 36.554,246.333 36.762 M248.003 39.423 C 248.007 39.710,248.312 40.077,248.439 39.950 C 248.508 39.881,248.437 39.699,248.282 39.544 C 248.127 39.389,248.001 39.334,248.003 39.423 M298.208 40.611 C 297.544 40.650,297.000 40.743,297.000 40.819 C 297.000 40.895,296.401 41.009,295.670 41.073 C 294.938 41.137,294.296 41.259,294.243 41.345 C 294.190 41.430,293.926 41.500,293.657 41.500 C 293.387 41.500,293.167 41.565,293.167 41.645 C 293.167 41.725,292.863 41.839,292.493 41.898 C 292.122 41.958,291.691 42.075,291.534 42.158 C 291.378 42.241,290.894 42.446,290.459 42.613 C 290.024 42.780,289.668 42.973,289.667 43.042 C 289.667 43.110,289.584 43.167,289.484 43.167 C 289.260 43.167,288.116 43.689,288.000 43.844 C 287.954 43.905,287.748 44.008,287.542 44.072 C 287.335 44.136,287.167 44.259,287.167 44.345 C 287.167 44.430,287.052 44.500,286.911 44.500 C 286.771 44.500,286.613 44.612,286.560 44.750 C 286.508 44.887,286.364 45.000,286.242 45.000 C 285.949 45.000,283.000 47.915,283.000 48.204 C 283.000 48.326,282.853 48.533,282.673 48.662 C 282.493 48.792,282.299 49.109,282.243 49.366 C 282.186 49.623,282.077 49.833,282.000 49.833 C 281.923 49.833,281.810 50.058,281.750 50.333 C 281.690 50.608,281.571 50.833,281.487 50.833 C 281.402 50.833,281.333 50.983,281.333 51.167 C 281.333 51.350,281.268 51.500,281.188 51.500 C 281.108 51.500,280.995 51.800,280.936 52.167 C 280.877 52.533,280.755 52.833,280.665 52.833 C 280.574 52.833,280.500 53.016,280.500 53.240 C 280.500 53.464,280.427 53.692,280.338 53.747 C 280.249 53.802,280.127 54.219,280.067 54.674 C 280.006 55.128,279.892 55.500,279.812 55.500 C 279.732 55.500,279.667 55.612,279.667 55.750 C 279.667 55.968,280.602 56.000,287.083 56.000 C 294.314 56.000,294.500 55.992,294.500 55.677 C 294.500 55.499,294.568 55.311,294.651 55.260 C 294.734 55.208,294.854 54.791,294.917 54.333 C 294.980 53.875,295.091 53.500,295.164 53.500 C 295.237 53.500,295.345 53.238,295.406 52.917 C 295.466 52.596,295.680 52.152,295.883 51.931 C 296.085 51.709,296.475 51.262,296.750 50.937 C 297.025 50.612,297.494 50.214,297.792 50.052 C 298.090 49.890,298.333 49.700,298.333 49.629 C 298.333 49.558,298.465 49.500,298.625 49.499 C 298.785 49.498,299.142 49.374,299.417 49.222 C 300.167 48.807,304.210 48.797,304.917 49.207 C 305.192 49.367,305.510 49.498,305.625 49.499 C 305.740 49.500,305.833 49.575,305.833 49.667 C 305.833 49.758,305.914 49.833,306.013 49.833 C 306.247 49.833,307.667 51.253,307.667 51.487 C 307.667 51.586,307.734 51.667,307.815 51.667 C 307.897 51.667,308.015 51.872,308.078 52.123 C 308.142 52.374,308.267 52.626,308.358 52.682 C 308.506 52.774,308.682 54.118,308.939 57.125 L 309.028 58.167 308.528 58.167 C 308.253 58.167,308.003 58.241,307.972 58.332 C 307.942 58.422,307.448 58.546,306.875 58.605 C 306.302 58.665,305.833 58.770,305.833 58.839 C 305.833 58.908,305.083 59.018,304.165 59.083 C 303.248 59.149,302.456 59.270,302.405 59.351 C 302.355 59.433,301.798 59.500,301.167 59.500 C 300.536 59.500,299.979 59.565,299.930 59.645 C 299.881 59.725,298.714 59.845,297.337 59.911 C 295.960 59.977,294.833 60.086,294.833 60.151 C 294.833 60.217,294.140 60.356,293.292 60.459 C 291.177 60.717,290.500 60.848,290.500 60.997 C 290.500 61.067,290.203 61.172,289.841 61.229 C 289.478 61.287,288.829 61.522,288.399 61.751 C 287.969 61.980,287.516 62.167,287.392 62.167 C 287.268 62.167,287.167 62.234,287.167 62.315 C 287.167 62.397,286.965 62.515,286.718 62.576 C 286.472 62.638,286.153 62.820,286.010 62.981 C 285.867 63.142,285.637 63.327,285.500 63.393 C 284.813 63.723,284.439 64.024,283.440 65.053 C 282.843 65.668,282.307 66.320,282.249 66.502 C 282.191 66.684,282.080 66.833,282.002 66.833 C 281.924 66.833,281.810 67.058,281.750 67.333 C 281.690 67.608,281.571 67.833,281.487 67.833 C 281.402 67.833,281.333 67.946,281.333 68.083 C 281.333 68.221,281.259 68.333,281.169 68.333 C 281.078 68.333,280.956 68.633,280.897 69.000 C 280.839 69.367,280.725 69.667,280.645 69.667 C 280.565 69.667,280.500 69.839,280.500 70.050 C 280.500 70.261,280.423 70.510,280.330 70.603 C 280.236 70.697,280.113 71.275,280.056 71.887 C 279.999 72.499,279.888 73.000,279.809 73.000 C 279.731 73.000,279.667 74.050,279.667 75.333 C 279.667 76.617,279.731 77.667,279.810 77.667 C 279.888 77.667,280.001 78.135,280.061 78.708 C 280.121 79.281,280.244 79.775,280.335 79.806 C 280.426 79.836,280.500 80.042,280.500 80.264 C 280.500 80.485,280.567 80.667,280.648 80.667 C 280.730 80.667,280.845 80.929,280.906 81.250 C 280.966 81.571,281.087 81.833,281.174 81.833 C 281.262 81.833,281.333 81.946,281.333 82.083 C 281.333 82.221,281.400 82.333,281.482 82.333 C 281.564 82.333,281.680 82.530,281.740 82.770 C 281.800 83.010,281.940 83.307,282.050 83.429 C 282.160 83.551,282.420 83.860,282.627 84.117 C 283.395 85.066,283.600 85.272,284.333 85.834 C 284.746 86.150,285.121 86.447,285.167 86.496 C 285.296 86.631,285.845 86.951,286.667 87.369 C 287.079 87.578,287.454 87.795,287.500 87.851 C 287.546 87.906,287.865 88.004,288.208 88.067 C 288.552 88.130,288.833 88.253,288.833 88.341 C 288.833 88.428,288.965 88.501,289.125 88.503 C 289.285 88.504,289.717 88.613,290.083 88.745 C 290.450 88.877,291.016 88.989,291.342 88.993 C 291.667 88.997,292.027 89.094,292.142 89.208 C 292.426 89.493,300.004 89.508,300.349 89.225 C 300.478 89.119,301.091 88.979,301.711 88.913 C 302.331 88.848,302.879 88.728,302.929 88.647 C 302.979 88.566,303.203 88.500,303.427 88.500 C 303.650 88.500,303.833 88.432,303.833 88.349 C 303.833 88.266,304.208 88.146,304.667 88.083 C 305.125 88.020,305.500 87.901,305.500 87.818 C 305.500 87.735,305.612 87.667,305.749 87.667 C 306.080 87.667,307.333 87.119,307.333 86.974 C 307.333 86.911,307.553 86.812,307.822 86.753 C 308.090 86.694,308.400 86.538,308.509 86.406 C 308.618 86.274,308.810 86.167,308.936 86.167 C 309.061 86.167,309.258 86.017,309.372 85.833 C 309.775 85.188,310.333 85.826,310.333 86.932 C 310.333 87.142,310.399 87.354,310.478 87.403 C 310.558 87.453,310.669 87.720,310.724 87.997 L 310.825 88.500 318.098 88.500 L 325.370 88.500 325.253 87.875 C 325.189 87.532,325.077 87.213,325.005 87.167 C 324.933 87.121,324.821 86.765,324.756 86.376 C 324.691 85.987,324.569 85.626,324.485 85.574 C 324.402 85.523,324.333 85.260,324.333 84.990 C 324.333 84.721,324.264 84.500,324.180 84.500 C 324.096 84.500,323.974 83.994,323.910 83.375 C 323.845 82.756,323.729 82.169,323.650 82.071 C 323.411 81.770,323.123 76.053,323.055 70.257 C 323.020 67.236,322.925 64.723,322.845 64.674 C 322.765 64.624,322.673 61.846,322.641 58.500 C 322.609 55.154,322.607 52.623,322.636 52.875 C 322.665 53.127,322.759 53.333,322.844 53.333 C 322.930 53.333,323.000 53.521,323.000 53.750 C 323.000 53.979,323.070 54.167,323.156 54.167 C 323.243 54.167,323.364 54.504,323.425 54.917 C 323.487 55.329,323.604 55.667,323.686 55.667 C 323.767 55.667,323.834 55.835,323.834 56.042 C 323.835 56.248,323.947 56.631,324.084 56.894 C 324.221 57.157,324.333 57.475,324.333 57.602 C 324.333 57.729,324.401 57.833,324.484 57.833 C 324.567 57.833,324.687 58.208,324.750 58.667 C 324.813 59.125,324.924 59.500,324.997 59.500 C 325.069 59.500,325.179 59.836,325.241 60.246 C 325.302 60.656,325.423 61.036,325.510 61.089 C 325.596 61.143,325.667 61.332,325.667 61.510 C 325.667 61.688,325.732 61.833,325.812 61.833 C 325.892 61.833,326.008 62.148,326.069 62.533 C 326.131 62.918,326.239 63.312,326.310 63.408 C 326.381 63.505,326.584 64.052,326.761 64.625 C 326.938 65.198,327.132 65.667,327.193 65.667 C 327.253 65.667,327.354 66.042,327.417 66.500 C 327.480 66.958,327.599 67.333,327.682 67.333 C 327.765 67.333,327.833 67.479,327.833 67.657 C 327.833 67.835,327.904 68.024,327.990 68.077 C 328.077 68.131,328.198 68.510,328.259 68.921 C 328.321 69.331,328.438 69.667,328.519 69.667 C 328.600 69.667,328.667 69.815,328.667 69.997 C 328.667 70.320,328.973 71.229,329.435 72.275 C 329.562 72.564,329.667 72.958,329.667 73.150 C 329.667 73.343,329.733 73.500,329.814 73.500 C 329.896 73.500,330.013 73.837,330.075 74.250 C 330.136 74.662,330.257 75.000,330.344 75.000 C 330.430 75.000,330.500 75.188,330.500 75.417 C 330.500 75.646,330.568 75.833,330.651 75.833 C 330.734 75.833,330.854 76.208,330.917 76.667 C 330.980 77.125,331.099 77.500,331.182 77.500 C 331.265 77.500,331.333 77.688,331.333 77.917 C 331.333 78.146,331.404 78.333,331.490 78.333 C 331.576 78.333,331.697 78.671,331.759 79.083 C 331.821 79.496,331.931 79.833,332.004 79.833 C 332.077 79.833,332.188 80.133,332.250 80.499 C 332.312 80.865,332.431 81.207,332.515 81.259 C 332.598 81.311,332.667 81.499,332.667 81.677 C 332.667 81.854,332.735 82.000,332.818 82.000 C 332.901 82.000,333.020 82.375,333.083 82.833 C 333.146 83.292,333.257 83.667,333.330 83.667 C 333.403 83.667,333.513 84.002,333.574 84.413 C 333.636 84.823,333.757 85.203,333.843 85.256 C 333.929 85.309,334.000 85.499,334.000 85.677 C 334.000 85.854,334.065 86.000,334.145 86.000 C 334.225 86.000,334.333 86.265,334.385 86.589 C 334.438 86.913,334.612 87.475,334.773 87.839 L 335.064 88.500 342.199 88.500 L 349.333 88.500 349.333 88.093 C 349.333 87.869,349.400 87.645,349.481 87.595 C 349.562 87.545,349.678 87.244,349.737 86.926 C 349.797 86.608,349.955 86.138,350.089 85.882 C 350.222 85.626,350.332 85.248,350.332 85.042 C 350.333 84.835,350.408 84.667,350.500 84.667 C 350.592 84.667,350.667 84.521,350.667 84.343 C 350.667 84.165,350.733 83.979,350.814 83.928 C 350.896 83.878,351.011 83.577,351.071 83.259 C 351.130 82.941,351.288 82.471,351.422 82.215 C 351.555 81.959,351.665 81.581,351.666 81.375 C 351.666 81.169,351.742 81.000,351.833 81.000 C 351.925 81.000,352.000 80.813,352.000 80.583 C 352.000 80.354,352.075 80.167,352.167 80.167 C 352.258 80.167,352.333 80.009,352.333 79.817 C 352.333 79.502,352.622 78.710,353.003 77.979 C 353.080 77.830,353.195 77.435,353.257 77.102 C 353.320 76.769,353.431 76.459,353.504 76.414 C 353.578 76.369,353.688 76.032,353.750 75.666 C 353.812 75.300,353.931 75.000,354.015 75.000 C 354.098 75.000,354.167 74.854,354.167 74.677 C 354.167 74.499,354.237 74.309,354.324 74.256 C 354.410 74.203,354.531 73.823,354.593 73.413 C 354.654 73.002,354.764 72.667,354.838 72.667 C 354.911 72.667,355.021 72.367,355.083 72.000 C 355.145 71.633,355.264 71.333,355.348 71.333 C 355.432 71.333,355.500 71.146,355.500 70.917 C 355.500 70.688,355.565 70.500,355.645 70.500 C 355.725 70.500,355.836 70.218,355.891 69.874 C 355.946 69.530,356.149 68.921,356.343 68.520 C 356.536 68.120,356.735 67.539,356.786 67.229 C 356.836 66.920,356.934 66.667,357.003 66.667 C 357.073 66.667,357.182 66.386,357.247 66.042 C 357.311 65.699,357.414 65.380,357.475 65.334 C 357.634 65.214,358.168 63.638,358.167 63.292 C 358.167 63.131,358.235 63.000,358.319 63.000 C 358.402 63.000,358.521 62.700,358.583 62.333 C 358.645 61.967,358.764 61.667,358.848 61.667 C 358.932 61.667,359.000 61.479,359.000 61.250 C 359.000 61.021,359.068 60.833,359.151 60.833 C 359.234 60.833,359.354 60.458,359.417 60.000 C 359.480 59.542,359.598 59.167,359.680 59.167 C 359.762 59.167,359.877 58.867,359.936 58.500 C 359.995 58.133,360.108 57.833,360.188 57.833 C 360.268 57.833,360.333 57.646,360.333 57.417 C 360.333 57.188,360.400 57.000,360.481 57.000 C 360.563 57.000,360.681 56.728,360.743 56.396 C 360.805 56.064,360.920 55.670,360.997 55.521 C 361.378 54.790,361.667 53.998,361.667 53.683 C 361.667 53.491,361.742 53.333,361.833 53.333 C 361.925 53.333,362.000 53.176,362.000 52.984 C 362.000 52.665,362.294 51.861,362.678 51.132 C 362.760 50.976,362.876 50.545,362.935 50.174 C 362.994 49.803,363.101 49.500,363.173 49.500 C 363.245 49.500,363.355 49.200,363.417 48.833 C 363.479 48.467,363.598 48.167,363.681 48.167 C 363.765 48.167,363.833 47.979,363.833 47.750 C 363.833 47.521,363.908 47.333,364.000 47.333 C 364.110 47.333,364.167 54.306,364.167 67.917 L 364.167 88.500 371.250 88.500 L 378.333 88.500 378.333 64.861 L 378.333 41.221 369.056 41.111 C 354.007 40.931,351.000 40.954,351.000 41.250 C 351.000 41.387,350.934 41.500,350.852 41.500 C 350.771 41.500,350.665 41.706,350.617 41.958 C 350.462 42.764,350.148 43.909,350.009 44.173 C 349.935 44.314,349.821 44.821,349.755 45.298 C 349.689 45.776,349.567 46.167,349.484 46.167 C 349.401 46.167,349.333 46.392,349.333 46.667 C 349.333 46.942,349.264 47.167,349.179 47.167 C 349.094 47.167,348.972 47.579,348.909 48.083 C 348.846 48.587,348.734 49.000,348.659 49.000 C 348.585 49.000,348.472 49.413,348.409 49.917 C 348.346 50.421,348.229 50.833,348.147 50.833 C 348.066 50.833,348.000 51.016,348.000 51.240 C 348.000 51.464,347.934 51.688,347.853 51.738 C 347.772 51.788,347.654 52.242,347.591 52.748 C 347.528 53.253,347.406 53.667,347.321 53.667 C 347.236 53.667,347.167 53.850,347.167 54.073 C 347.167 54.297,347.099 54.522,347.016 54.574 C 346.933 54.625,346.813 55.042,346.750 55.500 C 346.687 55.958,346.574 56.371,346.500 56.417 C 346.426 56.463,346.313 56.875,346.250 57.334 C 346.187 57.792,346.067 58.167,345.984 58.167 C 345.901 58.167,345.833 58.377,345.833 58.633 C 345.833 58.890,345.756 59.177,345.662 59.271 C 345.568 59.365,345.445 59.830,345.389 60.304 C 345.333 60.779,345.228 61.167,345.155 61.167 C 345.083 61.167,344.972 61.579,344.909 62.083 C 344.846 62.587,344.729 63.000,344.647 63.000 C 344.566 63.000,344.500 63.188,344.500 63.417 C 344.500 63.646,344.434 63.833,344.353 63.833 C 344.271 63.833,344.154 64.246,344.091 64.750 C 344.028 65.254,343.915 65.667,343.840 65.667 C 343.765 65.667,343.663 65.910,343.615 66.208 C 343.566 66.506,343.399 67.162,343.244 67.667 C 343.089 68.171,342.883 68.977,342.787 69.458 C 342.614 70.318,342.333 70.654,342.333 70.000 C 342.333 69.817,342.265 69.667,342.182 69.667 C 342.099 69.667,341.980 69.292,341.917 68.834 C 341.854 68.375,341.743 67.964,341.670 67.919 C 341.598 67.874,341.488 67.501,341.426 67.089 C 341.365 66.678,341.243 66.297,341.157 66.244 C 341.071 66.191,341.000 65.926,341.000 65.657 C 341.000 65.387,340.930 65.167,340.845 65.167 C 340.760 65.167,340.639 64.754,340.576 64.250 C 340.513 63.746,340.402 63.333,340.330 63.333 C 340.257 63.333,340.146 62.958,340.083 62.500 C 340.020 62.042,339.901 61.667,339.818 61.667 C 339.735 61.667,339.667 61.446,339.667 61.177 C 339.667 60.907,339.594 60.641,339.505 60.586 C 339.416 60.531,339.293 60.113,339.233 59.656 C 339.172 59.199,339.058 58.786,338.978 58.736 C 338.898 58.687,338.833 58.464,338.833 58.240 C 338.833 58.016,338.764 57.833,338.679 57.833 C 338.594 57.833,338.472 57.421,338.409 56.917 C 338.346 56.413,338.236 56.000,338.163 56.000 C 338.091 56.000,337.980 55.625,337.917 55.167 C 337.854 54.709,337.734 54.292,337.651 54.240 C 337.568 54.189,337.500 53.964,337.500 53.740 C 337.500 53.516,337.430 53.333,337.345 53.333 C 337.260 53.333,337.139 52.921,337.076 52.417 C 337.013 51.913,336.902 51.500,336.830 51.500 C 336.757 51.500,336.646 51.125,336.583 50.667 C 336.520 50.209,336.401 49.792,336.318 49.740 C 336.235 49.689,336.167 49.464,336.167 49.240 C 336.167 49.016,336.097 48.833,336.012 48.833 C 335.927 48.833,335.806 48.420,335.743 47.914 C 335.679 47.409,335.561 46.955,335.481 46.905 C 335.400 46.855,335.333 46.631,335.333 46.407 C 335.333 46.183,335.267 46.000,335.186 46.000 C 335.105 46.000,334.987 45.587,334.924 45.083 C 334.861 44.579,334.745 44.167,334.667 44.167 C 334.588 44.167,334.472 43.754,334.409 43.250 C 334.346 42.746,334.229 42.333,334.147 42.333 C 334.066 42.333,334.000 42.146,334.000 41.917 C 334.000 41.688,333.925 41.500,333.833 41.500 C 333.742 41.500,333.667 41.387,333.667 41.250 C 333.667 40.907,319.087 40.867,318.955 41.210 C 318.846 41.493,319.198 43.167,319.366 43.167 C 319.440 43.167,319.500 43.312,319.500 43.490 C 319.500 43.668,319.571 43.857,319.657 43.911 C 319.743 43.964,319.864 44.344,319.926 44.754 C 319.987 45.164,320.095 45.500,320.164 45.500 C 320.234 45.500,320.339 45.803,320.398 46.174 C 320.458 46.545,320.580 46.995,320.670 47.174 C 320.760 47.353,320.899 47.634,320.979 47.797 C 321.059 47.961,321.180 48.354,321.248 48.672 C 321.316 48.990,321.445 49.341,321.535 49.453 C 321.625 49.564,321.661 49.752,321.616 49.869 C 321.570 49.989,321.445 49.843,321.334 49.542 C 321.224 49.244,321.066 49.000,320.984 49.000 C 320.901 49.000,320.833 48.887,320.833 48.750 C 320.833 48.612,320.763 48.500,320.678 48.500 C 320.592 48.500,320.469 48.331,320.405 48.125 C 320.340 47.919,320.035 47.511,319.727 47.220 C 319.419 46.928,319.167 46.617,319.167 46.529 C 319.167 46.440,318.898 46.154,318.571 45.892 C 318.243 45.631,317.808 45.267,317.605 45.083 C 317.060 44.592,316.202 44.000,316.033 44.000 C 315.951 44.000,315.753 43.854,315.592 43.676 C 315.431 43.498,315.082 43.305,314.816 43.246 C 314.551 43.188,314.333 43.083,314.333 43.014 C 314.333 42.944,313.921 42.747,313.417 42.576 C 312.912 42.405,312.500 42.212,312.500 42.148 C 312.500 42.084,312.125 41.980,311.667 41.917 C 311.208 41.854,310.833 41.734,310.833 41.651 C 310.833 41.568,310.608 41.500,310.333 41.500 C 310.058 41.500,309.833 41.431,309.833 41.348 C 309.833 41.264,309.252 41.141,308.542 41.076 C 307.831 41.010,307.207 40.889,307.154 40.807 C 307.050 40.645,300.197 40.496,298.208 40.611 M248.833 40.754 C 248.833 40.959,249.404 41.833,249.537 41.833 C 249.610 41.833,249.575 41.667,249.460 41.465 C 249.209 41.024,248.833 40.598,248.833 40.754 M249.584 42.165 C 249.527 42.258,249.560 42.333,249.657 42.333 C 249.754 42.333,249.833 42.414,249.833 42.512 C 249.833 42.610,249.956 42.813,250.105 42.962 C 250.357 43.214,250.368 43.204,250.250 42.833 C 250.083 42.308,249.721 41.944,249.584 42.165 M250.333 43.500 C 250.333 43.592,250.408 43.667,250.500 43.667 C 250.592 43.667,250.667 43.784,250.667 43.927 C 250.667 44.069,250.740 44.141,250.830 44.085 C 250.933 44.022,250.918 43.864,250.790 43.659 C 250.572 43.310,250.333 43.227,250.333 43.500 M251.167 44.813 C 251.167 44.916,251.234 45.000,251.315 45.000 C 251.397 45.000,251.511 45.188,251.568 45.417 C 251.669 45.818,252.000 46.009,252.000 45.667 C 252.000 45.575,251.925 45.500,251.833 45.500 C 251.742 45.500,251.667 45.397,251.667 45.270 C 251.667 45.144,251.554 44.947,251.417 44.833 C 251.244 44.690,251.167 44.684,251.167 44.813 M237.016 45.167 C 237.001 45.520,237.290 45.932,237.444 45.778 C 237.516 45.707,237.493 45.596,237.395 45.533 C 237.297 45.469,237.174 45.304,237.121 45.167 C 237.037 44.944,237.025 44.944,237.016 45.167 M237.500 46.167 C 237.500 46.258,237.567 46.333,237.649 46.333 C 237.730 46.333,237.844 46.521,237.902 46.750 C 238.002 47.151,238.333 47.343,238.333 47.000 C 238.333 46.908,238.266 46.833,238.185 46.833 C 238.103 46.833,237.989 46.646,237.932 46.417 C 237.831 46.016,237.500 45.824,237.500 46.167 M252.000 46.157 C 252.000 46.254,252.067 46.333,252.149 46.333 C 252.230 46.333,252.344 46.521,252.402 46.750 C 252.459 46.979,252.574 47.167,252.657 47.167 C 252.740 47.167,252.696 46.943,252.560 46.670 C 252.295 46.138,252.000 45.868,252.000 46.157 M238.366 47.458 C 238.866 48.484,239.167 48.813,239.167 48.333 C 239.167 48.242,239.100 48.167,239.018 48.167 C 238.936 48.167,238.822 47.979,238.765 47.750 C 238.707 47.521,238.580 47.333,238.483 47.333 C 238.385 47.333,238.333 47.390,238.366 47.458 M239.167 48.754 C 239.167 48.815,239.295 49.083,239.453 49.349 C 239.737 49.831,240.000 49.984,240.000 49.667 C 240.000 49.575,239.925 49.500,239.833 49.500 C 239.742 49.500,239.667 49.420,239.667 49.321 C 239.667 49.223,239.554 49.030,239.417 48.893 C 239.279 48.755,239.167 48.693,239.167 48.754 M171.873 49.124 C 171.989 49.217,172.260 49.347,172.476 49.413 C 172.953 49.560,174.833 51.435,174.833 51.765 C 174.833 51.894,174.902 52.000,174.987 52.000 C 175.071 52.000,175.190 52.225,175.250 52.500 C 175.310 52.775,175.429 53.000,175.513 53.000 C 175.598 53.000,175.667 53.300,175.667 53.667 C 175.667 54.033,175.742 54.333,175.833 54.333 C 175.935 54.333,176.000 55.083,176.000 56.250 L 176.000 58.167 175.583 58.167 C 175.354 58.167,175.167 58.233,175.167 58.314 C 175.167 58.395,174.660 58.515,174.042 58.580 C 173.423 58.646,172.839 58.763,172.743 58.841 C 172.648 58.919,171.877 59.035,171.030 59.099 C 170.183 59.163,169.450 59.279,169.402 59.358 C 169.353 59.436,168.835 59.500,168.250 59.500 C 167.665 59.500,167.147 59.564,167.098 59.642 C 167.050 59.721,165.903 59.838,164.550 59.904 C 163.196 59.970,162.013 60.085,161.919 60.159 C 161.826 60.233,161.094 60.347,160.292 60.412 C 159.491 60.477,158.792 60.598,158.741 60.682 C 158.689 60.765,158.431 60.833,158.167 60.833 C 157.902 60.833,157.645 60.900,157.595 60.981 C 157.545 61.062,157.166 61.179,156.752 61.241 C 156.338 61.303,156.000 61.424,156.000 61.510 C 156.000 61.596,155.890 61.667,155.756 61.667 C 155.496 61.667,154.307 62.180,154.167 62.353 C 154.121 62.409,153.915 62.508,153.708 62.572 C 153.502 62.636,153.333 62.759,153.333 62.845 C 153.333 62.930,153.221 63.000,153.083 63.000 C 152.946 63.000,152.833 63.075,152.833 63.167 C 152.833 63.258,152.727 63.333,152.596 63.333 C 152.466 63.333,152.134 63.558,151.859 63.833 C 151.584 64.108,151.297 64.334,151.221 64.335 C 151.145 64.336,150.821 64.643,150.500 65.017 C 150.179 65.391,149.708 65.934,149.452 66.224 C 149.197 66.513,148.945 66.919,148.892 67.125 C 148.840 67.331,148.735 67.500,148.660 67.500 C 148.584 67.500,148.473 67.669,148.413 67.875 C 148.223 68.525,147.923 69.167,147.808 69.167 C 147.748 69.167,147.646 69.542,147.583 70.000 C 147.283 72.180,147.167 70.335,147.167 63.417 L 147.167 56.000 154.417 56.000 L 161.667 56.000 161.667 55.333 C 161.667 54.967,161.735 54.667,161.818 54.667 C 161.901 54.667,162.020 54.292,162.083 53.833 C 162.146 53.375,162.266 53.000,162.349 53.000 C 162.432 53.000,162.500 52.887,162.500 52.750 C 162.500 52.612,162.575 52.500,162.667 52.500 C 162.758 52.500,162.833 52.393,162.833 52.262 C 162.833 52.131,162.936 51.921,163.061 51.796 C 163.187 51.670,163.342 51.403,163.406 51.201 C 163.470 50.999,163.587 50.833,163.666 50.833 C 163.745 50.833,163.912 50.740,164.037 50.625 C 164.369 50.321,164.875 50.004,165.208 49.892 C 165.369 49.839,165.500 49.734,165.500 49.660 C 165.500 49.587,165.744 49.474,166.042 49.411 C 166.340 49.347,166.658 49.235,166.750 49.162 C 167.175 48.823,171.458 48.792,171.873 49.124 M253.789 49.167 C 253.910 49.647,254.273 50.066,254.396 49.867 C 254.442 49.792,254.301 49.510,254.083 49.240 C 253.694 48.761,253.687 48.759,253.789 49.167 M240.083 50.333 C 240.250 50.858,240.613 51.222,240.749 51.001 C 240.806 50.909,240.774 50.833,240.677 50.833 C 240.579 50.833,240.500 50.753,240.500 50.655 C 240.500 50.557,240.378 50.354,240.228 50.204 C 239.976 49.953,239.966 49.962,240.083 50.333 M254.540 50.535 C 254.656 50.738,254.844 51.006,254.958 51.130 C 255.310 51.513,255.205 50.976,254.843 50.542 C 254.442 50.061,254.269 50.058,254.540 50.535 M240.667 51.500 C 240.667 51.592,240.742 51.667,240.833 51.667 C 240.925 51.667,241.000 51.747,241.000 51.845 C 241.000 51.943,241.122 52.146,241.272 52.296 C 241.524 52.547,241.534 52.538,241.417 52.167 C 241.227 51.571,240.667 51.072,240.667 51.500 M255.167 51.667 C 255.167 51.758,255.242 51.833,255.333 51.833 C 255.425 51.833,255.500 51.914,255.500 52.012 C 255.500 52.110,255.612 52.303,255.750 52.440 C 256.082 52.772,256.067 52.581,255.714 51.984 C 255.429 51.502,255.167 51.350,255.167 51.667 M322.500 52.000 C 322.500 52.183,322.425 52.333,322.333 52.333 C 322.242 52.333,322.167 52.183,322.167 52.000 C 322.167 51.817,322.242 51.667,322.333 51.667 C 322.425 51.667,322.500 51.817,322.500 52.000 M241.500 52.833 C 241.500 52.925,241.575 53.000,241.667 53.000 C 241.758 53.000,241.833 53.103,241.833 53.230 C 241.833 53.356,241.946 53.553,242.083 53.667 C 242.413 53.940,242.400 53.747,242.047 53.151 C 241.763 52.669,241.500 52.516,241.500 52.833 M256.333 53.480 C 256.333 53.560,256.446 53.719,256.583 53.833 C 256.855 54.059,256.889 54.005,256.732 53.597 C 256.625 53.318,256.333 53.232,256.333 53.480 M242.669 54.613 C 242.674 54.868,242.981 55.241,243.094 55.128 C 243.156 55.066,243.085 54.894,242.937 54.746 C 242.788 54.598,242.668 54.538,242.669 54.613 M257.169 54.780 C 257.174 55.035,257.481 55.408,257.594 55.295 C 257.656 55.233,257.585 55.061,257.437 54.913 C 257.288 54.764,257.168 54.704,257.169 54.780 M243.167 55.391 C 243.167 55.423,243.285 55.685,243.429 55.974 C 243.681 56.480,244.000 56.680,244.000 56.333 C 244.000 56.242,243.926 56.167,243.837 56.167 C 243.747 56.167,243.626 55.979,243.568 55.750 C 243.486 55.421,243.167 55.136,243.167 55.391 M257.944 56.111 C 257.892 56.163,257.962 56.319,258.099 56.456 C 258.237 56.594,258.392 56.663,258.444 56.611 C 258.497 56.559,258.427 56.403,258.290 56.266 C 258.152 56.128,257.997 56.059,257.944 56.111 M244.167 57.313 C 244.167 57.522,244.656 57.900,244.774 57.782 C 244.828 57.727,244.757 57.566,244.615 57.425 C 244.325 57.135,244.167 57.095,244.167 57.313 M258.667 57.429 C 258.667 57.553,259.115 58.000,259.240 58.000 C 259.293 58.000,259.242 57.850,259.128 57.667 C 258.933 57.354,258.667 57.217,258.667 57.429 M244.833 58.284 C 244.833 58.543,245.349 59.167,245.551 59.154 C 245.695 59.144,245.693 59.117,245.542 59.056 C 245.427 59.010,245.333 58.898,245.333 58.808 C 245.333 58.717,245.221 58.530,245.083 58.393 C 244.946 58.255,244.833 58.207,244.833 58.284 M259.500 58.833 C 259.500 58.925,259.567 59.000,259.649 59.000 C 259.730 59.000,259.844 59.188,259.902 59.417 C 260.002 59.818,260.333 60.009,260.333 59.667 C 260.333 59.575,260.266 59.500,260.185 59.500 C 260.103 59.500,259.989 59.313,259.932 59.083 C 259.831 58.682,259.500 58.491,259.500 58.833 M245.944 59.944 C 245.768 60.121,245.814 60.290,246.064 60.386 C 246.227 60.449,246.271 60.379,246.212 60.154 C 246.118 59.798,246.103 59.786,245.944 59.944 M260.333 60.146 C 260.333 60.249,260.400 60.333,260.482 60.333 C 260.564 60.333,260.678 60.521,260.735 60.750 C 260.836 61.151,261.167 61.343,261.167 61.000 C 261.167 60.908,261.092 60.833,261.000 60.833 C 260.908 60.833,260.833 60.730,260.833 60.604 C 260.833 60.477,260.721 60.281,260.583 60.167 C 260.411 60.023,260.333 60.017,260.333 60.146 M261.516 61.833 C 261.501 62.186,261.790 62.599,261.944 62.444 C 262.016 62.373,261.993 62.263,261.895 62.199 C 261.797 62.136,261.674 61.971,261.621 61.833 C 261.537 61.611,261.525 61.611,261.516 61.833 M262.083 63.000 C 262.209 63.397,262.553 63.833,262.740 63.833 C 262.861 63.833,262.494 63.180,262.186 62.848 C 261.987 62.632,261.973 62.653,262.083 63.000 M262.760 64.151 C 262.698 64.251,262.726 64.333,262.823 64.333 C 262.921 64.333,263.000 64.414,263.000 64.512 C 263.000 64.610,263.112 64.803,263.250 64.940 C 263.597 65.287,263.561 65.012,263.185 64.443 C 262.994 64.152,262.829 64.039,262.760 64.151 M249.000 65.500 C 249.000 65.592,249.058 65.667,249.128 65.667 C 249.198 65.667,249.390 65.873,249.554 66.125 C 249.839 66.565,249.847 66.567,249.737 66.174 C 249.572 65.583,249.000 65.060,249.000 65.500 M176.000 72.218 L 176.000 77.769 175.375 78.041 C 175.031 78.191,174.544 78.363,174.292 78.425 C 174.040 78.486,173.833 78.603,173.833 78.685 C 173.833 78.766,173.646 78.833,173.417 78.833 C 173.188 78.833,173.000 78.907,173.000 78.998 C 173.000 79.089,172.700 79.211,172.333 79.269 C 171.967 79.328,171.667 79.434,171.667 79.506 C 171.667 79.577,171.292 79.687,170.834 79.750 C 170.375 79.813,169.958 79.933,169.907 80.016 C 169.856 80.099,169.556 80.167,169.240 80.167 C 168.925 80.167,168.667 80.242,168.667 80.333 C 168.667 80.430,168.142 80.500,167.427 80.500 C 166.744 80.500,166.140 80.425,166.083 80.333 C 166.027 80.242,165.841 80.167,165.670 80.167 C 165.367 80.167,164.467 79.747,164.060 79.417 C 163.165 78.688,162.184 77.591,162.089 77.212 C 162.025 76.960,161.886 76.699,161.778 76.633 C 161.504 76.463,161.524 72.964,161.800 72.872 C 161.910 72.836,162.000 72.692,162.000 72.553 C 162.000 71.770,164.115 69.167,164.750 69.167 C 164.887 69.167,165.000 69.098,165.000 69.013 C 165.000 68.929,165.244 68.808,165.542 68.744 C 165.840 68.680,166.164 68.564,166.262 68.485 C 166.361 68.406,166.982 68.291,167.643 68.229 C 168.303 68.168,168.883 68.054,168.932 67.976 C 168.980 67.897,169.465 67.833,170.010 67.833 C 170.554 67.833,171.000 67.768,171.000 67.688 C 171.000 67.608,171.599 67.491,172.330 67.427 C 173.062 67.363,173.704 67.241,173.757 67.155 C 173.810 67.070,174.107 67.000,174.417 67.000 C 174.727 67.000,175.027 66.925,175.083 66.833 C 175.140 66.742,175.369 66.667,175.593 66.667 L 176.000 66.667 176.000 72.218 M250.138 67.250 C 250.390 67.806,250.667 68.024,250.667 67.667 C 250.667 67.575,250.587 67.500,250.490 67.500 C 250.393 67.500,250.360 67.424,250.417 67.332 C 250.475 67.240,250.409 67.052,250.273 66.915 C 249.886 66.529,249.851 66.616,250.138 67.250 M309.000 72.237 L 309.000 77.807 308.500 77.917 C 308.225 77.977,308.000 78.096,308.000 78.180 C 308.000 78.264,307.869 78.334,307.708 78.334 C 307.548 78.335,307.202 78.447,306.939 78.584 C 306.677 78.721,306.358 78.833,306.231 78.833 C 306.104 78.833,306.000 78.904,306.000 78.990 C 306.000 79.076,305.662 79.197,305.250 79.259 C 304.837 79.321,304.500 79.429,304.500 79.500 C 304.500 79.571,304.164 79.679,303.754 79.741 C 303.344 79.802,302.964 79.923,302.911 80.010 C 302.857 80.096,302.560 80.167,302.250 80.167 C 301.940 80.167,301.640 80.242,301.583 80.333 C 301.527 80.425,300.922 80.500,300.240 80.500 C 299.524 80.500,299.000 80.430,299.000 80.333 C 299.000 80.242,298.856 80.167,298.680 80.167 C 298.340 80.167,297.416 79.722,297.037 79.375 C 296.912 79.260,296.707 79.167,296.583 79.167 C 296.458 79.167,296.309 79.021,296.253 78.842 C 296.196 78.663,296.011 78.473,295.841 78.419 C 295.672 78.365,295.487 78.137,295.430 77.911 C 295.373 77.685,295.257 77.500,295.171 77.500 C 295.085 77.500,294.966 77.237,294.905 76.915 C 294.845 76.593,294.729 76.289,294.648 76.238 C 294.449 76.116,294.458 73.546,294.657 73.423 C 294.743 73.369,294.864 72.990,294.926 72.579 C 294.987 72.169,295.096 71.833,295.168 71.833 C 295.239 71.833,295.344 71.646,295.402 71.417 C 295.459 71.188,295.580 71.000,295.670 71.000 C 295.760 71.000,295.833 70.919,295.833 70.821 C 295.833 70.488,297.063 69.442,297.708 69.226 C 297.869 69.172,298.000 69.067,298.000 68.994 C 298.000 68.920,298.244 68.808,298.542 68.744 C 298.840 68.680,299.158 68.570,299.250 68.498 C 299.437 68.352,301.423 68.018,302.875 67.889 C 303.402 67.842,303.833 67.746,303.833 67.676 C 303.833 67.605,304.452 67.496,305.207 67.433 C 305.963 67.370,306.653 67.247,306.741 67.159 C 306.828 67.072,307.147 67.000,307.450 67.000 C 307.752 67.000,308.000 66.925,308.000 66.833 C 308.000 66.742,308.225 66.667,308.500 66.667 L 309.000 66.667 309.000 72.237 M250.667 68.167 C 250.667 68.258,250.742 68.333,250.833 68.333 C 250.925 68.333,251.000 68.437,251.000 68.563 C 251.000 68.689,251.112 68.886,251.250 69.000 C 251.423 69.143,251.500 69.150,251.500 69.020 C 251.500 68.918,251.433 68.833,251.351 68.833 C 251.270 68.833,251.156 68.646,251.098 68.417 C 250.998 68.016,250.667 67.824,250.667 68.167 M251.533 69.458 C 252.033 70.484,252.333 70.813,252.333 70.333 C 252.333 70.242,252.266 70.167,252.185 70.167 C 252.103 70.167,251.989 69.979,251.932 69.750 C 251.874 69.521,251.747 69.333,251.650 69.333 C 251.552 69.333,251.500 69.390,251.533 69.458 M252.353 70.750 C 252.782 71.715,253.167 72.148,253.167 71.667 C 253.167 71.575,253.092 71.500,253.000 71.500 C 252.908 71.500,252.833 71.397,252.833 71.270 C 252.833 71.144,252.709 70.938,252.556 70.812 C 252.404 70.686,252.312 70.658,252.353 70.750 M253.250 72.333 C 253.408 72.830,253.809 73.249,253.966 73.080 C 254.031 73.011,253.990 72.921,253.875 72.880 C 253.760 72.839,253.667 72.731,253.667 72.641 C 253.667 72.550,253.544 72.354,253.395 72.204 C 253.143 71.953,253.132 71.962,253.250 72.333 M254.040 73.702 C 254.419 74.367,254.732 74.635,254.583 74.167 C 254.457 73.770,254.114 73.333,253.927 73.333 C 253.874 73.333,253.925 73.499,254.040 73.702 M255.003 75.292 C 255.007 75.520,255.314 75.909,255.412 75.811 C 255.543 75.679,255.334 75.167,255.149 75.167 C 255.067 75.167,255.001 75.223,255.003 75.292 M255.500 76.058 C 255.500 76.245,256.047 77.167,256.158 77.167 C 256.325 77.167,255.796 76.013,255.625 76.005 C 255.556 76.002,255.500 76.026,255.500 76.058 M256.333 77.667 C 256.333 77.758,256.400 77.833,256.481 77.833 C 256.562 77.833,256.667 77.983,256.715 78.167 C 256.763 78.350,256.903 78.499,257.026 78.497 C 257.179 78.496,257.191 78.456,257.064 78.372 C 256.962 78.305,256.826 78.081,256.761 77.875 C 256.645 77.501,256.333 77.350,256.333 77.667 M257.333 79.313 C 257.333 79.530,257.824 79.898,257.948 79.774 C 258.007 79.715,257.968 79.667,257.861 79.667 C 257.754 79.667,257.667 79.554,257.667 79.417 C 257.667 79.279,257.592 79.167,257.500 79.167 C 257.408 79.167,257.333 79.232,257.333 79.313 M258.259 80.652 C 258.177 80.784,258.215 80.928,258.354 81.016 C 258.632 81.193,258.996 81.215,258.733 81.039 C 258.632 80.972,258.515 80.808,258.472 80.675 C 258.409 80.480,258.368 80.476,258.259 80.652 M259.000 82.095 C 259.000 82.148,259.112 82.303,259.250 82.440 C 259.521 82.712,259.555 82.671,259.399 82.264 C 259.304 82.016,259.000 81.888,259.000 82.095 M259.833 83.480 C 259.833 83.560,259.946 83.719,260.083 83.833 C 260.355 84.059,260.389 84.005,260.232 83.597 C 260.125 83.318,259.833 83.232,259.833 83.480 M260.669 84.780 C 260.674 85.035,260.981 85.408,261.094 85.295 C 261.156 85.233,261.085 85.061,260.937 84.913 C 260.788 84.764,260.668 84.704,260.669 84.780 M261.500 86.087 C 261.500 86.149,261.629 86.416,261.786 86.683 C 262.071 87.165,262.333 87.317,262.333 87.000 C 262.333 86.908,262.258 86.833,262.167 86.833 C 262.075 86.833,262.000 86.753,262.000 86.655 C 262.000 86.557,261.887 86.364,261.750 86.226 C 261.612 86.089,261.500 86.026,261.500 86.087 M262.167 87.500 C 262.167 87.592,262.224 87.667,262.295 87.667 C 262.365 87.667,262.557 87.873,262.720 88.125 C 263.006 88.565,263.013 88.567,262.904 88.174 C 262.738 87.583,262.167 87.060,262.167 87.500 " stroke="none" fill="#fcfcfc" fill-rule="evenodd"></path><path id="path1" d="M223.833 56.167 L 223.833 88.500 230.417 88.500 L 237.000 88.500 237.019 66.708 C 237.030 54.723,237.073 45.048,237.115 45.208 C 237.157 45.369,237.261 45.500,237.346 45.500 C 237.430 45.500,237.500 45.612,237.500 45.750 C 237.500 45.887,237.574 46.000,237.663 46.000 C 237.753 46.000,237.874 46.188,237.932 46.417 C 237.989 46.646,238.103 46.833,238.185 46.833 C 238.266 46.833,238.333 46.946,238.333 47.083 C 238.333 47.221,238.407 47.333,238.497 47.333 C 238.587 47.333,238.707 47.521,238.765 47.750 C 238.822 47.979,238.928 48.167,239.000 48.167 C 239.072 48.167,239.178 48.354,239.235 48.583 C 239.293 48.813,239.413 49.000,239.503 49.000 C 239.593 49.000,239.667 49.112,239.667 49.250 C 239.667 49.387,239.734 49.500,239.815 49.500 C 239.897 49.500,240.011 49.688,240.068 49.917 C 240.126 50.146,240.247 50.333,240.337 50.333 C 240.426 50.333,240.500 50.446,240.500 50.583 C 240.500 50.721,240.579 50.833,240.677 50.833 C 240.774 50.833,240.804 50.912,240.745 51.009 C 240.685 51.105,240.782 51.312,240.961 51.467 C 241.139 51.623,241.343 51.932,241.413 52.154 C 241.483 52.376,241.685 52.712,241.860 52.901 C 242.036 53.089,242.222 53.414,242.275 53.622 C 242.327 53.830,242.428 54.000,242.500 54.000 C 242.572 54.000,242.678 54.188,242.735 54.417 C 242.793 54.646,242.913 54.833,243.003 54.833 C 243.093 54.833,243.167 54.946,243.167 55.083 C 243.167 55.221,243.242 55.333,243.333 55.333 C 243.425 55.333,243.500 55.440,243.500 55.571 C 243.500 55.702,243.598 55.909,243.718 56.030 C 243.933 56.248,244.115 56.621,244.134 56.888 C 244.140 56.963,244.288 57.151,244.462 57.304 C 244.637 57.458,244.831 57.790,244.893 58.042 C 244.955 58.294,245.080 58.500,245.170 58.500 C 245.260 58.500,245.333 58.612,245.333 58.750 C 245.333 58.887,245.406 59.000,245.495 59.000 C 245.584 59.000,245.613 59.112,245.560 59.250 C 245.508 59.387,245.547 59.500,245.649 59.500 C 245.750 59.500,245.833 59.617,245.833 59.760 C 245.833 59.903,245.902 59.977,245.986 59.925 C 246.071 59.873,246.189 60.056,246.250 60.332 C 246.310 60.608,246.429 60.833,246.513 60.833 C 246.598 60.833,246.667 60.946,246.667 61.083 C 246.667 61.221,246.740 61.333,246.830 61.333 C 246.920 61.333,247.041 61.521,247.098 61.750 C 247.156 61.979,247.262 62.167,247.333 62.167 C 247.405 62.167,247.511 62.354,247.568 62.583 C 247.626 62.813,247.747 63.000,247.837 63.000 C 247.926 63.000,248.000 63.112,248.000 63.250 C 248.000 63.387,248.067 63.500,248.149 63.500 C 248.230 63.500,248.344 63.688,248.402 63.917 C 248.459 64.146,248.580 64.333,248.670 64.333 C 248.760 64.333,248.833 64.446,248.833 64.583 C 248.833 64.721,248.913 64.833,249.010 64.833 C 249.107 64.833,249.138 64.912,249.078 65.009 C 249.018 65.105,249.116 65.312,249.294 65.467 C 249.473 65.623,249.678 65.938,249.750 66.167 C 249.822 66.396,250.027 66.711,250.206 66.866 C 250.384 67.022,250.482 67.228,250.422 67.324 C 250.362 67.421,250.393 67.500,250.490 67.500 C 250.587 67.500,250.667 67.612,250.667 67.750 C 250.667 67.887,250.740 68.000,250.830 68.000 C 250.920 68.000,251.041 68.188,251.098 68.417 C 251.156 68.646,251.270 68.833,251.351 68.833 C 251.433 68.833,251.500 68.946,251.500 69.083 C 251.500 69.221,251.574 69.333,251.663 69.333 C 251.753 69.333,251.874 69.521,251.932 69.750 C 251.989 69.979,252.094 70.167,252.165 70.167 C 252.236 70.167,252.339 70.298,252.392 70.458 C 252.499 70.775,252.854 71.366,253.019 71.500 C 253.076 71.546,253.174 71.752,253.239 71.958 C 253.303 72.165,253.426 72.333,253.511 72.333 C 253.597 72.333,253.667 72.446,253.667 72.583 C 253.667 72.721,253.750 72.833,253.851 72.833 C 253.953 72.833,253.997 72.934,253.950 73.057 C 253.902 73.181,254.006 73.385,254.181 73.510 C 254.356 73.636,254.545 73.985,254.601 74.285 C 254.657 74.585,254.770 74.789,254.852 74.739 C 254.933 74.688,255.000 74.764,255.000 74.907 C 255.000 75.050,255.070 75.167,255.155 75.167 C 255.241 75.167,255.364 75.335,255.428 75.542 C 255.492 75.748,255.591 75.954,255.647 76.000 C 255.704 76.046,255.900 76.383,256.083 76.750 C 256.266 77.117,256.510 77.516,256.625 77.637 C 256.739 77.758,256.833 77.964,256.833 78.095 C 256.833 78.226,256.908 78.333,257.000 78.333 C 257.092 78.333,257.167 78.446,257.167 78.583 C 257.167 78.721,257.260 78.834,257.375 78.836 C 257.514 78.838,257.500 78.892,257.333 79.000 C 257.120 79.138,257.126 79.162,257.375 79.164 C 257.535 79.166,257.667 79.279,257.667 79.417 C 257.667 79.554,257.736 79.667,257.820 79.667 C 257.904 79.667,258.023 79.892,258.084 80.168 C 258.144 80.444,258.263 80.627,258.347 80.575 C 258.431 80.523,258.500 80.591,258.500 80.726 C 258.500 80.862,258.594 81.010,258.708 81.056 C 258.866 81.120,258.868 81.144,258.714 81.154 C 258.602 81.161,258.553 81.279,258.606 81.416 C 258.659 81.553,258.769 81.623,258.851 81.573 C 258.933 81.522,259.000 81.597,259.000 81.740 C 259.000 81.883,259.074 82.000,259.163 82.000 C 259.253 82.000,259.374 82.188,259.432 82.417 C 259.489 82.646,259.603 82.833,259.685 82.833 C 259.766 82.833,259.833 82.946,259.833 83.083 C 259.833 83.221,259.907 83.333,259.997 83.333 C 260.087 83.333,260.207 83.521,260.265 83.750 C 260.322 83.979,260.428 84.167,260.500 84.167 C 260.572 84.167,260.678 84.354,260.735 84.583 C 260.793 84.813,260.913 85.000,261.003 85.000 C 261.093 85.000,261.167 85.112,261.167 85.250 C 261.167 85.388,261.234 85.500,261.315 85.500 C 261.397 85.500,261.511 85.688,261.568 85.917 C 261.626 86.146,261.747 86.333,261.837 86.333 C 261.926 86.333,262.000 86.446,262.000 86.583 C 262.000 86.721,262.081 86.833,262.181 86.833 C 262.280 86.833,262.329 86.927,262.290 87.042 C 262.251 87.156,262.346 87.362,262.502 87.500 C 262.658 87.638,262.839 87.919,262.904 88.125 L 263.022 88.500 270.428 88.500 L 277.833 88.500 277.833 56.268 C 277.833 27.030,277.809 24.026,277.570 23.934 C 277.425 23.879,274.462 23.833,270.986 23.833 L 264.667 23.833 264.667 45.500 C 264.667 59.833,264.610 67.167,264.500 67.167 C 264.353 67.167,264.250 66.667,264.318 66.279 C 264.331 66.204,264.260 66.193,264.160 66.254 C 264.057 66.318,263.938 66.215,263.886 66.017 C 263.836 65.824,263.736 65.667,263.665 65.667 C 263.594 65.667,263.489 65.479,263.432 65.250 C 263.374 65.021,263.253 64.833,263.163 64.833 C 263.074 64.833,263.000 64.721,263.000 64.583 C 263.000 64.446,262.921 64.333,262.823 64.333 C 262.726 64.333,262.696 64.254,262.755 64.158 C 262.815 64.061,262.718 63.855,262.539 63.699 C 262.361 63.544,262.156 63.233,262.085 63.008 C 262.014 62.783,261.853 62.496,261.728 62.371 C 261.603 62.245,261.500 61.994,261.500 61.812 C 261.500 61.629,261.425 61.527,261.333 61.583 C 261.242 61.640,261.167 61.569,261.167 61.427 C 261.167 61.284,261.093 61.167,261.003 61.167 C 260.913 61.167,260.793 60.979,260.735 60.750 C 260.678 60.521,260.564 60.333,260.482 60.333 C 260.400 60.333,260.333 60.221,260.333 60.083 C 260.333 59.946,260.260 59.833,260.170 59.833 C 260.080 59.833,259.959 59.646,259.902 59.417 C 259.844 59.188,259.738 59.000,259.667 59.000 C 259.595 59.000,259.485 58.798,259.424 58.552 C 259.362 58.305,259.177 57.986,259.013 57.843 C 258.849 57.700,258.655 57.396,258.583 57.167 C 258.511 56.938,258.325 56.637,258.169 56.500 C 258.013 56.362,257.918 56.156,257.957 56.042 C 257.996 55.927,257.947 55.833,257.847 55.833 C 257.748 55.833,257.667 55.721,257.667 55.583 C 257.667 55.446,257.597 55.333,257.511 55.333 C 257.426 55.333,257.303 55.165,257.239 54.958 C 257.174 54.752,257.076 54.546,257.019 54.500 C 256.854 54.366,256.499 53.775,256.392 53.458 C 256.339 53.298,256.236 53.167,256.165 53.167 C 256.094 53.167,255.989 52.979,255.932 52.750 C 255.874 52.521,255.753 52.333,255.663 52.333 C 255.574 52.333,255.500 52.221,255.500 52.083 C 255.500 51.946,255.425 51.833,255.333 51.833 C 255.242 51.833,255.167 51.726,255.167 51.595 C 255.167 51.464,255.069 51.258,254.949 51.137 C 254.654 50.839,254.438 50.304,254.490 50.000 C 254.513 49.862,254.478 49.803,254.413 49.867 C 254.237 50.040,253.907 49.648,253.770 49.103 C 253.704 48.841,253.541 48.518,253.408 48.385 C 253.275 48.252,253.167 47.994,253.167 47.812 C 253.167 47.629,253.092 47.527,253.000 47.583 C 252.908 47.640,252.833 47.569,252.833 47.427 C 252.833 47.284,252.760 47.167,252.670 47.167 C 252.580 47.167,252.459 46.979,252.402 46.750 C 252.344 46.521,252.230 46.333,252.149 46.333 C 252.067 46.333,252.000 46.221,252.000 46.083 C 252.000 45.946,251.926 45.833,251.837 45.833 C 251.747 45.833,251.626 45.646,251.568 45.417 C 251.511 45.188,251.403 45.000,251.329 45.000 C 251.254 45.000,251.144 44.774,251.083 44.499 C 251.022 44.223,250.904 44.040,250.820 44.092 C 250.736 44.144,250.667 44.069,250.667 43.927 C 250.667 43.784,250.600 43.667,250.518 43.667 C 250.436 43.667,250.322 43.479,250.265 43.250 C 250.207 43.021,250.087 42.833,249.997 42.833 C 249.907 42.833,249.833 42.721,249.833 42.583 C 249.833 42.446,249.754 42.333,249.657 42.333 C 249.560 42.333,249.526 42.259,249.582 42.169 C 249.638 42.078,249.527 41.836,249.335 41.630 C 249.144 41.425,248.944 41.086,248.892 40.878 C 248.840 40.670,248.730 40.500,248.649 40.500 C 248.567 40.500,248.500 40.387,248.500 40.250 C 248.500 40.112,248.426 40.000,248.337 40.000 C 248.247 40.000,248.126 39.813,248.068 39.583 C 248.011 39.354,247.905 39.167,247.833 39.167 C 247.762 39.167,247.656 38.979,247.598 38.750 C 247.541 38.521,247.420 38.333,247.330 38.333 C 247.240 38.333,247.167 38.221,247.167 38.083 C 247.167 37.946,247.092 37.833,247.000 37.833 C 246.908 37.833,246.833 37.726,246.833 37.595 C 246.833 37.464,246.731 37.255,246.605 37.129 C 246.480 37.004,246.319 36.717,246.248 36.492 C 246.177 36.267,245.980 35.962,245.810 35.814 C 245.640 35.666,245.453 35.307,245.395 35.017 C 245.337 34.726,245.254 34.524,245.210 34.568 C 245.069 34.709,244.706 34.258,244.789 34.043 C 244.833 33.927,244.786 33.833,244.684 33.833 C 244.583 33.833,244.500 33.721,244.500 33.583 C 244.500 33.446,244.426 33.333,244.337 33.333 C 244.247 33.333,244.126 33.146,244.068 32.917 C 244.011 32.688,243.897 32.500,243.815 32.500 C 243.734 32.500,243.667 32.346,243.667 32.157 C 243.667 31.968,243.594 31.859,243.505 31.914 C 243.416 31.969,243.292 31.804,243.229 31.548 C 243.167 31.293,243.071 31.046,243.016 31.000 C 242.852 30.862,242.497 30.270,242.392 29.958 C 242.339 29.798,242.236 29.667,242.165 29.667 C 242.094 29.667,241.989 29.479,241.932 29.250 C 241.874 29.021,241.753 28.833,241.663 28.833 C 241.574 28.833,241.500 28.721,241.500 28.583 C 241.500 28.446,241.406 28.332,241.292 28.331 C 241.130 28.329,241.131 28.298,241.298 28.192 C 241.459 28.090,241.408 27.977,241.095 27.743 C 240.865 27.570,240.632 27.220,240.576 26.965 C 240.519 26.709,240.416 26.500,240.346 26.500 C 240.276 26.500,240.076 26.220,239.901 25.878 C 239.726 25.535,239.490 25.155,239.375 25.032 C 239.260 24.910,239.167 24.702,239.167 24.571 C 239.167 24.440,239.092 24.333,239.000 24.333 C 238.908 24.333,238.833 24.221,238.833 24.083 C 238.833 23.865,237.889 23.833,231.333 23.833 L 223.833 23.833 223.833 56.167 " stroke="none" fill="#dc251d" fill-rule="evenodd"></path></g></svg>