<svg id="Layer_1" data-name="Layer 1" xmlns="http://www.w3.org/2000/svg" viewBox="0 0 280 300"><defs><style>.cls-1{fill:#4285f4;}.cls-2{fill:#34a853;}.cls-3{fill:#fbbc04;}.cls-4{fill:#ea4335;}.cls-5{fill:#c5221f;}</style></defs><g id="g18"><path id="path8" class="cls-1" d="M58.06,221.16H88.25V147.84L45.12,115.5v92.72A12.94,12.94,0,0,0,58.06,221.16Z"/><path id="path10" class="cls-2" d="M191.75,221.16h30.19a12.94,12.94,0,0,0,12.94-12.94V115.5l-43.13,32.34Z"/><path id="path12" class="cls-3" d="M191.75,91.78v56.06l43.13-32.34V98.25a19.4,19.4,0,0,0-31-15.52Z"/><path id="path14" class="cls-4" d="M88.25,147.84V91.78L140,130.59l51.75-38.81v56.06L140,186.65Z"/><path id="path16" class="cls-5" d="M45.12,98.25V115.5l43.13,32.34V91.78l-12.08-9A19.4,19.4,0,0,0,45.12,98.25Z"/></g></svg>